<?xml version="1.0" encoding="UTF-8" standalone="no"?>
<!DOCTYPE svg PUBLIC "-//W3C//DTD SVG 1.1//EN"
 "http://www.w3.org/Graphics/SVG/1.1/DTD/svg11.dtd">
<!-- Generated by graphviz version 2.38.0 (20140413.2041)
 -->
<!-- Title: callgraph Pages: 1 -->
<svg width="1927pt" height="1873pt"
 viewBox="0.00 0.00 1927.25 1872.54" xmlns="http://www.w3.org/2000/svg" xmlns:xlink="http://www.w3.org/1999/xlink">
<g id="graph0" class="graph" transform="scale(1 1) rotate(0) translate(4 1868.54)">
<title>callgraph</title>
<polygon fill="white" stroke="none" points="-4,4 -4,-1868.54 1923.25,-1868.54 1923.25,4 -4,4"/>
<g id="clust1" class="cluster"><title>cluster_legend</title>
<polygon fill="none" stroke="black" points="8,-1786.8 8,-1856.54 546,-1856.54 546,-1786.8 8,-1786.8"/>
</g>
<!-- Frontend -->
<g id="node1" class="node"><title>Frontend</title>
<ellipse fill="chartreuse" stroke="chartreuse" cx="496" cy="-1821.67" rx="42.4939" ry="18"/>
<text text-anchor="middle" x="496" y="-1817.97" font-family="Times,serif" font-size="14.00">Frontend</text>
</g>
<!-- Pager
(Backend) -->
<g id="node2" class="node"><title>Pager
(Backend)</title>
<ellipse fill="darkorange" stroke="darkorange" cx="384" cy="-1821.67" rx="51.7379" ry="26.7407"/>
<text text-anchor="middle" x="384" y="-1825.47" font-family="Times,serif" font-size="14.00">Pager</text>
<text text-anchor="middle" x="384" y="-1810.47" font-family="Times,serif" font-size="14.00">(Backend)</text>
</g>
<!-- Tree
(Backend) -->
<g id="node3" class="node"><title>Tree
(Backend)</title>
<ellipse fill="darkgoldenrod" stroke="darkgoldenrod" cx="263" cy="-1821.67" rx="51.7379" ry="26.7407"/>
<text text-anchor="middle" x="263" y="-1825.47" font-family="Times,serif" font-size="14.00">Tree</text>
<text text-anchor="middle" x="263" y="-1810.47" font-family="Times,serif" font-size="14.00">(Backend)</text>
</g>
<!-- Unknown -->
<g id="node4" class="node"><title>Unknown</title>
<ellipse fill="gray" stroke="gray" cx="148" cy="-1821.67" rx="45.4919" ry="18"/>
<text text-anchor="middle" x="148" y="-1817.97" font-family="Times,serif" font-size="14.00">Unknown</text>
</g>
<!-- VDBE -->
<g id="node5" class="node"><title>VDBE</title>
<ellipse fill="gold" stroke="gold" cx="50" cy="-1821.67" rx="34.394" ry="18"/>
<text text-anchor="middle" x="50" y="-1817.97" font-family="Times,serif" font-size="14.00">VDBE</text>
</g>
<!-- F2b61ff8 -->
<g id="node6" class="node"><title>F2b61ff8</title>
<ellipse fill="gray" stroke="gray" cx="325" cy="-1731.93" rx="75.8212" ry="26.7407"/>
<text text-anchor="middle" x="325" y="-1735.73" font-family="Times,serif" font-size="14.00">sqlite3_initialize</text>
<text text-anchor="middle" x="325" y="-1720.73" font-family="Times,serif" font-size="14.00">(mutex.c)</text>
</g>
<!-- F2b623a8 -->
<g id="node7" class="node"><title>F2b623a8</title>
<ellipse fill="gray" stroke="gray" cx="265" cy="-1642.19" rx="75.8212" ry="26.7407"/>
<text text-anchor="middle" x="265" y="-1645.99" font-family="Times,serif" font-size="14.00">sqlite3_initialize</text>
<text text-anchor="middle" x="265" y="-1630.99" font-family="Times,serif" font-size="14.00">(mutex.c)</text>
</g>
<!-- F2b61ff8&#45;&gt;F2b623a8 -->
<g id="edge1" class="edge"><title>F2b61ff8&#45;&gt;F2b623a8</title>
<path fill="none" stroke="black" d="M307.646,-1705.55C301.551,-1696.64 294.604,-1686.48 288.112,-1676.99"/>
<polygon fill="black" stroke="black" points="290.849,-1674.79 282.315,-1668.51 285.071,-1678.74 290.849,-1674.79"/>
</g>
<!-- F2bd7ee8 -->
<g id="node8" class="node"><title>F2bd7ee8</title>
<ellipse fill="gray" stroke="gray" cx="235" cy="-1552.45" rx="108.375" ry="26.7407"/>
<text text-anchor="middle" x="235" y="-1556.25" font-family="Times,serif" font-size="14.00">sqlite3InsertBuiltinFuncs</text>
<text text-anchor="middle" x="235" y="-1541.25" font-family="Times,serif" font-size="14.00">(callback.c)</text>
</g>
<!-- F2b623a8&#45;&gt;F2bd7ee8 -->
<g id="edge2" class="edge"><title>F2b623a8&#45;&gt;F2bd7ee8</title>
<path fill="none" stroke="black" d="M256.161,-1615.34C253.348,-1607.11 250.186,-1597.86 247.18,-1589.07"/>
<polygon fill="black" stroke="black" points="250.426,-1587.75 243.879,-1579.42 243.803,-1590.02 250.426,-1587.75"/>
</g>
<!-- F2b62da8 -->
<g id="node9" class="node"><title>F2b62da8</title>
<ellipse fill="gray" stroke="gray" cx="625" cy="-1014.01" rx="94.5053" ry="26.7407"/>
<text text-anchor="middle" x="625" y="-1017.81" font-family="Times,serif" font-size="14.00">sqlite3DbMallocZero</text>
<text text-anchor="middle" x="625" y="-1002.81" font-family="Times,serif" font-size="14.00">(malloc.c)</text>
</g>
<!-- F2b63258 -->
<g id="node10" class="node"><title>F2b63258</title>
<ellipse fill="gray" stroke="gray" cx="625" cy="-924.271" rx="94.0904" ry="26.7407"/>
<text text-anchor="middle" x="625" y="-928.071" font-family="Times,serif" font-size="14.00">sqlite3DbMallocRaw</text>
<text text-anchor="middle" x="625" y="-913.071" font-family="Times,serif" font-size="14.00">(malloc.c)</text>
</g>
<!-- F2b62da8&#45;&gt;F2b63258 -->
<g id="edge3" class="edge"><title>F2b62da8&#45;&gt;F2b63258</title>
<path fill="none" stroke="black" d="M625,-986.686C625,-978.72 625,-969.829 625,-961.34"/>
<polygon fill="black" stroke="black" points="628.5,-961.275 625,-951.275 621.5,-961.275 628.5,-961.275"/>
</g>
<!-- F2b6c738 -->
<g id="node11" class="node"><title>F2b6c738</title>
<ellipse fill="gray" stroke="gray" cx="625" cy="-834.531" rx="107.46" ry="26.7407"/>
<text text-anchor="middle" x="625" y="-838.331" font-family="Times,serif" font-size="14.00">sqlite3DbMallocRawNN</text>
<text text-anchor="middle" x="625" y="-823.331" font-family="Times,serif" font-size="14.00">(malloc.c)</text>
</g>
<!-- F2b63258&#45;&gt;F2b6c738 -->
<g id="edge4" class="edge"><title>F2b63258&#45;&gt;F2b6c738</title>
<path fill="none" stroke="black" d="M625,-896.946C625,-888.98 625,-880.089 625,-871.6"/>
<polygon fill="black" stroke="black" points="628.5,-871.535 625,-861.535 621.5,-871.535 628.5,-871.535"/>
</g>
<!-- F2b652c8 -->
<g id="node12" class="node"><title>F2b652c8</title>
<ellipse fill="gray" stroke="gray" cx="347" cy="-1372.97" rx="56.6372" ry="26.7407"/>
<text text-anchor="middle" x="347" y="-1376.77" font-family="Times,serif" font-size="14.00">sqlite3_free</text>
<text text-anchor="middle" x="347" y="-1361.77" font-family="Times,serif" font-size="14.00">(malloc.c)</text>
</g>
<!-- F2b674b8 -->
<g id="node13" class="node"><title>F2b674b8</title>
<ellipse fill="darkgoldenrod" stroke="darkgoldenrod" cx="1673" cy="-1103.75" rx="48.5816" ry="26.7407"/>
<text text-anchor="middle" x="1673" y="-1107.55" font-family="Times,serif" font-size="14.00">insertCell</text>
<text text-anchor="middle" x="1673" y="-1092.55" font-family="Times,serif" font-size="14.00">(btree.c)</text>
</g>
<!-- F2b7e238 -->
<g id="node14" class="node"><title>F2b7e238</title>
<ellipse fill="darkorange" stroke="darkorange" cx="1673" cy="-1014.01" rx="81.135" ry="26.7407"/>
<text text-anchor="middle" x="1673" y="-1017.81" font-family="Times,serif" font-size="14.00">sqlite3PagerWrite</text>
<text text-anchor="middle" x="1673" y="-1002.81" font-family="Times,serif" font-size="14.00">(pager.h)</text>
</g>
<!-- F2b674b8&#45;&gt;F2b7e238 -->
<g id="edge5" class="edge"><title>F2b674b8&#45;&gt;F2b7e238</title>
<path fill="none" stroke="black" d="M1673,-1076.43C1673,-1068.46 1673,-1059.57 1673,-1051.08"/>
<polygon fill="black" stroke="black" points="1676.5,-1051.02 1673,-1041.02 1669.5,-1051.02 1676.5,-1051.02"/>
</g>
<!-- F2c18f58 -->
<g id="node25" class="node"><title>F2c18f58</title>
<ellipse fill="darkorange" stroke="darkorange" cx="1673" cy="-924.271" rx="57.0522" ry="26.7407"/>
<text text-anchor="middle" x="1673" y="-928.071" font-family="Times,serif" font-size="14.00">pager_write</text>
<text text-anchor="middle" x="1673" y="-913.071" font-family="Times,serif" font-size="14.00">(pager.c)</text>
</g>
<!-- F2b7e238&#45;&gt;F2c18f58 -->
<g id="edge14" class="edge"><title>F2b7e238&#45;&gt;F2c18f58</title>
<path fill="none" stroke="black" d="M1673,-986.686C1673,-978.72 1673,-969.829 1673,-961.34"/>
<polygon fill="black" stroke="black" points="1676.5,-961.275 1673,-951.275 1669.5,-961.275 1676.5,-961.275"/>
</g>
<!-- F2b6d0f8 -->
<g id="node15" class="node"><title>F2b6d0f8</title>
<ellipse fill="chartreuse" stroke="chartreuse" cx="1479" cy="-834.531" rx="84.7059" ry="26.7407"/>
<text text-anchor="middle" x="1479" y="-838.331" font-family="Times,serif" font-size="14.00">sqlite3LocateTable</text>
<text text-anchor="middle" x="1479" y="-823.331" font-family="Times,serif" font-size="14.00">(build.c)</text>
</g>
<!-- F2b6d518 -->
<g id="node16" class="node"><title>F2b6d518</title>
<ellipse fill="chartreuse" stroke="chartreuse" cx="1479" cy="-744.791" rx="87.8629" ry="26.7407"/>
<text text-anchor="middle" x="1479" y="-748.591" font-family="Times,serif" font-size="14.00">sqlite3ReadSchema</text>
<text text-anchor="middle" x="1479" y="-733.591" font-family="Times,serif" font-size="14.00">(prepare.c)</text>
</g>
<!-- F2b6d0f8&#45;&gt;F2b6d518 -->
<g id="edge6" class="edge"><title>F2b6d0f8&#45;&gt;F2b6d518</title>
<path fill="none" stroke="black" d="M1479,-807.206C1479,-799.239 1479,-790.348 1479,-781.86"/>
<polygon fill="black" stroke="black" points="1482.5,-781.795 1479,-771.795 1475.5,-781.795 1482.5,-781.795"/>
</g>
<!-- F2bdff98 -->
<g id="node17" class="node"><title>F2bdff98</title>
<ellipse fill="chartreuse" stroke="chartreuse" cx="1479" cy="-655.051" rx="53.9813" ry="26.7407"/>
<text text-anchor="middle" x="1479" y="-658.851" font-family="Times,serif" font-size="14.00">sqlite3Init</text>
<text text-anchor="middle" x="1479" y="-643.851" font-family="Times,serif" font-size="14.00">(prepare.c)</text>
</g>
<!-- F2b6d518&#45;&gt;F2bdff98 -->
<g id="edge7" class="edge"><title>F2b6d518&#45;&gt;F2bdff98</title>
<path fill="none" stroke="black" d="M1479,-717.466C1479,-709.499 1479,-700.608 1479,-692.12"/>
<polygon fill="black" stroke="black" points="1482.5,-692.055 1479,-682.055 1475.5,-692.055 1482.5,-692.055"/>
</g>
<!-- F2be0328 -->
<g id="node43" class="node"><title>F2be0328</title>
<ellipse fill="chartreuse" stroke="chartreuse" cx="1479" cy="-565.311" rx="66.4361" ry="26.7407"/>
<text text-anchor="middle" x="1479" y="-569.111" font-family="Times,serif" font-size="14.00">sqlite3InitOne</text>
<text text-anchor="middle" x="1479" y="-554.111" font-family="Times,serif" font-size="14.00">(prepare.c)</text>
</g>
<!-- F2bdff98&#45;&gt;F2be0328 -->
<g id="edge30" class="edge"><title>F2bdff98&#45;&gt;F2be0328</title>
<path fill="none" stroke="black" d="M1479,-627.726C1479,-619.759 1479,-610.868 1479,-602.38"/>
<polygon fill="black" stroke="black" points="1482.5,-602.315 1479,-592.315 1475.5,-602.315 1482.5,-602.315"/>
</g>
<!-- F2b740e8 -->
<g id="node18" class="node"><title>F2b740e8</title>
<ellipse fill="gray" stroke="gray" cx="347" cy="-1462.71" rx="65.5227" ry="26.7407"/>
<text text-anchor="middle" x="347" y="-1466.51" font-family="Times,serif" font-size="14.00">sqlite3DbFree</text>
<text text-anchor="middle" x="347" y="-1451.51" font-family="Times,serif" font-size="14.00">(malloc.c)</text>
</g>
<!-- F2b740e8&#45;&gt;F2b652c8 -->
<g id="edge8" class="edge"><title>F2b740e8&#45;&gt;F2b652c8</title>
<path fill="none" stroke="black" d="M347,-1435.39C347,-1427.42 347,-1418.53 347,-1410.04"/>
<polygon fill="black" stroke="black" points="350.5,-1409.98 347,-1399.98 343.5,-1409.98 350.5,-1409.98"/>
</g>
<!-- F2b763e8 -->
<g id="node19" class="node"><title>F2b763e8</title>
<ellipse fill="gold" stroke="gold" cx="1673" cy="-1372.97" rx="57.0522" ry="26.7407"/>
<text text-anchor="middle" x="1673" y="-1376.77" font-family="Times,serif" font-size="14.00">sqlite3_step</text>
<text text-anchor="middle" x="1673" y="-1361.77" font-family="Times,serif" font-size="14.00">(vdbeapi.c)</text>
</g>
<!-- F2b767a8 -->
<g id="node20" class="node"><title>F2b767a8</title>
<ellipse fill="gold" stroke="gold" cx="1673" cy="-1283.23" rx="77.1494" ry="26.7407"/>
<text text-anchor="middle" x="1673" y="-1287.03" font-family="Times,serif" font-size="14.00">sqlite3VdbeExec</text>
<text text-anchor="middle" x="1673" y="-1272.03" font-family="Times,serif" font-size="14.00">(vdbeInt.h)</text>
</g>
<!-- F2b763e8&#45;&gt;F2b767a8 -->
<g id="edge9" class="edge"><title>F2b763e8&#45;&gt;F2b767a8</title>
<path fill="none" stroke="black" d="M1673,-1345.65C1673,-1337.68 1673,-1328.79 1673,-1320.3"/>
<polygon fill="black" stroke="black" points="1676.5,-1320.24 1673,-1310.24 1669.5,-1320.24 1676.5,-1320.24"/>
</g>
<!-- F2b7c038 -->
<g id="node21" class="node"><title>F2b7c038</title>
<ellipse fill="darkgoldenrod" stroke="darkgoldenrod" cx="1673" cy="-1193.49" rx="79.8063" ry="26.7407"/>
<text text-anchor="middle" x="1673" y="-1197.29" font-family="Times,serif" font-size="14.00">sqlite3BtreeInsert</text>
<text text-anchor="middle" x="1673" y="-1182.29" font-family="Times,serif" font-size="14.00">(btree.h)</text>
</g>
<!-- F2b767a8&#45;&gt;F2b7c038 -->
<g id="edge10" class="edge"><title>F2b767a8&#45;&gt;F2b7c038</title>
<path fill="none" stroke="black" d="M1673,-1255.91C1673,-1247.94 1673,-1239.05 1673,-1230.56"/>
<polygon fill="black" stroke="black" points="1676.5,-1230.5 1673,-1220.5 1669.5,-1230.5 1676.5,-1230.5"/>
</g>
<!-- F2bd0468 -->
<g id="node22" class="node"><title>F2bd0468</title>
<ellipse fill="gold" stroke="gold" cx="1845" cy="-1193.49" rx="74.4932" ry="26.7407"/>
<text text-anchor="middle" x="1845" y="-1197.29" font-family="Times,serif" font-size="14.00">sqlite3VdbeHalt</text>
<text text-anchor="middle" x="1845" y="-1182.29" font-family="Times,serif" font-size="14.00">(vdbeInt.h)</text>
</g>
<!-- F2b767a8&#45;&gt;F2bd0468 -->
<g id="edge11" class="edge"><title>F2b767a8&#45;&gt;F2bd0468</title>
<path fill="none" stroke="black" d="M1715.52,-1260.54C1739.35,-1248.39 1769.23,-1233.14 1794.28,-1220.37"/>
<polygon fill="black" stroke="black" points="1795.95,-1223.44 1803.27,-1215.78 1792.77,-1217.21 1795.95,-1223.44"/>
</g>
<!-- F2b7c038&#45;&gt;F2b674b8 -->
<g id="edge13" class="edge"><title>F2b7c038&#45;&gt;F2b674b8</title>
<path fill="none" stroke="black" d="M1673,-1166.17C1673,-1158.2 1673,-1149.31 1673,-1140.82"/>
<polygon fill="black" stroke="black" points="1676.5,-1140.76 1673,-1130.76 1669.5,-1140.76 1676.5,-1140.76"/>
</g>
<!-- F2b77468 -->
<g id="node23" class="node"><title>F2b77468</title>
<ellipse fill="chartreuse" stroke="chartreuse" cx="1532" cy="-116.61" rx="83.3772" ry="26.7407"/>
<text text-anchor="middle" x="1532" y="-120.41" font-family="Times,serif" font-size="14.00">sqlite3RunParser&#39;2</text>
<text text-anchor="middle" x="1532" y="-105.41" font-family="Times,serif" font-size="14.00">(tokenize.c)</text>
</g>
<!-- F2c4c178 -->
<g id="node24" class="node"><title>F2c4c178</title>
<ellipse fill="chartreuse" stroke="chartreuse" cx="1532" cy="-26.8701" rx="60.623" ry="26.7407"/>
<text text-anchor="middle" x="1532" y="-30.6701" font-family="Times,serif" font-size="14.00">sqlite3Select</text>
<text text-anchor="middle" x="1532" y="-15.6701" font-family="Times,serif" font-size="14.00">(select.c)</text>
</g>
<!-- F2b77468&#45;&gt;F2c4c178 -->
<g id="edge12" class="edge"><title>F2b77468&#45;&gt;F2c4c178</title>
<path fill="none" stroke="black" d="M1532,-89.2852C1532,-81.3185 1532,-72.4275 1532,-63.9391"/>
<polygon fill="black" stroke="black" points="1535.5,-63.874 1532,-53.874 1528.5,-63.8741 1535.5,-63.874"/>
</g>
<!-- F2b837c8 -->
<g id="node26" class="node"><title>F2b837c8</title>
<ellipse fill="gray" stroke="gray" cx="1064" cy="-1372.97" rx="65.1077" ry="26.7407"/>
<text text-anchor="middle" x="1064" y="-1376.77" font-family="Times,serif" font-size="14.00">openDatabase</text>
<text text-anchor="middle" x="1064" y="-1361.77" font-family="Times,serif" font-size="14.00">(main.c)</text>
</g>
<!-- F2b853c8 -->
<g id="node27" class="node"><title>F2b853c8</title>
<ellipse fill="darkgoldenrod" stroke="darkgoldenrod" cx="1168" cy="-1283.23" rx="78.4777" ry="26.7407"/>
<text text-anchor="middle" x="1168" y="-1287.03" font-family="Times,serif" font-size="14.00">sqlite3BtreeOpen</text>
<text text-anchor="middle" x="1168" y="-1272.03" font-family="Times,serif" font-size="14.00">(btree.h)</text>
</g>
<!-- F2b837c8&#45;&gt;F2b853c8 -->
<g id="edge15" class="edge"><title>F2b837c8&#45;&gt;F2b853c8</title>
<path fill="none" stroke="black" d="M1091.87,-1348.46C1104.03,-1338.2 1118.45,-1326.04 1131.45,-1315.07"/>
<polygon fill="black" stroke="black" points="1133.94,-1317.54 1139.33,-1308.42 1129.43,-1312.19 1133.94,-1317.54"/>
</g>
<!-- F2b85d58 -->
<g id="node28" class="node"><title>F2b85d58</title>
<ellipse fill="gray" stroke="gray" cx="960" cy="-1283.23" rx="111.946" ry="26.7407"/>
<text text-anchor="middle" x="960" y="-1287.03" font-family="Times,serif" font-size="14.00">sqlite3_overload_function</text>
<text text-anchor="middle" x="960" y="-1272.03" font-family="Times,serif" font-size="14.00">(main.c)</text>
</g>
<!-- F2b837c8&#45;&gt;F2b85d58 -->
<g id="edge16" class="edge"><title>F2b837c8&#45;&gt;F2b85d58</title>
<path fill="none" stroke="black" d="M1036.13,-1348.46C1024.27,-1338.45 1010.26,-1326.63 997.513,-1315.88"/>
<polygon fill="black" stroke="black" points="999.67,-1313.12 989.77,-1309.35 995.156,-1318.47 999.67,-1313.12"/>
</g>
<!-- F2b861c8 -->
<g id="node29" class="node"><title>F2b861c8</title>
<ellipse fill="gray" stroke="gray" cx="1330" cy="-1283.23" rx="65.1077" ry="26.7407"/>
<text text-anchor="middle" x="1330" y="-1287.03" font-family="Times,serif" font-size="14.00">createModule</text>
<text text-anchor="middle" x="1330" y="-1272.03" font-family="Times,serif" font-size="14.00">(vtab.c)</text>
</g>
<!-- F2b837c8&#45;&gt;F2b861c8 -->
<g id="edge17" class="edge"><title>F2b837c8&#45;&gt;F2b861c8</title>
<path fill="none" stroke="black" d="M1114.35,-1355.95C1152.91,-1343.61 1207.4,-1326.02 1255,-1310.1 1260.44,-1308.28 1266.09,-1306.37 1271.75,-1304.45"/>
<polygon fill="black" stroke="black" points="1272.9,-1307.75 1281.23,-1301.2 1270.63,-1301.13 1272.9,-1307.75"/>
</g>
<!-- F2b87248 -->
<g id="node30" class="node"><title>F2b87248</title>
<ellipse fill="gray" stroke="gray" cx="714" cy="-1283.23" rx="115.931" ry="26.7407"/>
<text text-anchor="middle" x="714" y="-1287.03" font-family="Times,serif" font-size="14.00">sqlite3_create_function_v2</text>
<text text-anchor="middle" x="714" y="-1272.03" font-family="Times,serif" font-size="14.00">(main.c)</text>
</g>
<!-- F2b837c8&#45;&gt;F2b87248 -->
<g id="edge18" class="edge"><title>F2b837c8&#45;&gt;F2b87248</title>
<path fill="none" stroke="black" d="M1009.31,-1358.26C953.445,-1344.26 865.87,-1322.3 800.573,-1305.93"/>
<polygon fill="black" stroke="black" points="801.252,-1302.5 790.701,-1303.46 799.55,-1309.29 801.252,-1302.5"/>
</g>
<!-- F2b877c8 -->
<g id="node31" class="node"><title>F2b877c8</title>
<ellipse fill="gray" stroke="gray" cx="1168" cy="-1193.49" rx="55.3091" ry="26.7407"/>
<text text-anchor="middle" x="1168" y="-1197.29" font-family="Times,serif" font-size="14.00">unixOpen</text>
<text text-anchor="middle" x="1168" y="-1182.29" font-family="Times,serif" font-size="14.00">(os_unix.c)</text>
</g>
<!-- F2b853c8&#45;&gt;F2b877c8 -->
<g id="edge19" class="edge"><title>F2b853c8&#45;&gt;F2b877c8</title>
<path fill="none" stroke="black" d="M1168,-1255.91C1168,-1247.94 1168,-1239.05 1168,-1230.56"/>
<polygon fill="black" stroke="black" points="1171.5,-1230.5 1168,-1220.5 1164.5,-1230.5 1171.5,-1230.5"/>
</g>
<!-- F2bee9c8 -->
<g id="node32" class="node"><title>F2bee9c8</title>
<ellipse fill="gray" stroke="gray" cx="837" cy="-1193.49" rx="81.135" ry="26.7407"/>
<text text-anchor="middle" x="837" y="-1197.29" font-family="Times,serif" font-size="14.00">sqlite3CreateFunc</text>
<text text-anchor="middle" x="837" y="-1182.29" font-family="Times,serif" font-size="14.00">(main.c)</text>
</g>
<!-- F2b85d58&#45;&gt;F2bee9c8 -->
<g id="edge20" class="edge"><title>F2b85d58&#45;&gt;F2bee9c8</title>
<path fill="none" stroke="black" d="M925.41,-1257.56C910.782,-1247.12 893.623,-1234.88 878.334,-1223.98"/>
<polygon fill="black" stroke="black" points="880.234,-1221.03 870.06,-1218.07 876.169,-1226.73 880.234,-1221.03"/>
</g>
<!-- F2b87248&#45;&gt;F2bee9c8 -->
<g id="edge21" class="edge"><title>F2b87248&#45;&gt;F2bee9c8</title>
<path fill="none" stroke="black" d="M748.59,-1257.56C763.218,-1247.12 780.377,-1234.88 795.666,-1223.98"/>
<polygon fill="black" stroke="black" points="797.831,-1226.73 803.94,-1218.07 793.766,-1221.03 797.831,-1226.73"/>
</g>
<!-- F2ba3818 -->
<g id="node33" class="node"><title>F2ba3818</title>
<ellipse fill="gray" stroke="gray" cx="837" cy="-1103.75" rx="88.2768" ry="26.7407"/>
<text text-anchor="middle" x="837" y="-1107.55" font-family="Times,serif" font-size="14.00">sqlite3FindFunction</text>
<text text-anchor="middle" x="837" y="-1092.55" font-family="Times,serif" font-size="14.00">(callback.c)</text>
</g>
<!-- F2bee9c8&#45;&gt;F2ba3818 -->
<g id="edge39" class="edge"><title>F2bee9c8&#45;&gt;F2ba3818</title>
<path fill="none" stroke="black" d="M837,-1166.17C837,-1158.2 837,-1149.31 837,-1140.82"/>
<polygon fill="black" stroke="black" points="840.5,-1140.76 837,-1130.76 833.5,-1140.76 840.5,-1140.76"/>
</g>
<!-- F2ba3818&#45;&gt;F2b62da8 -->
<g id="edge22" class="edge"><title>F2ba3818&#45;&gt;F2b62da8</title>
<path fill="none" stroke="black" d="M786.221,-1081.74C756.358,-1069.38 718.383,-1053.66 686.791,-1040.58"/>
<polygon fill="black" stroke="black" points="687.786,-1037.21 677.208,-1036.62 685.109,-1043.68 687.786,-1037.21"/>
</g>
<!-- F2ba3dd8 -->
<g id="node34" class="node"><title>F2ba3dd8</title>
<ellipse fill="gray" stroke="gray" cx="837" cy="-1014.01" rx="98.9899" ry="26.7407"/>
<text text-anchor="middle" x="837" y="-1017.81" font-family="Times,serif" font-size="14.00">findElementWithHash</text>
<text text-anchor="middle" x="837" y="-1002.81" font-family="Times,serif" font-size="14.00">(hash.c)</text>
</g>
<!-- F2ba3818&#45;&gt;F2ba3dd8 -->
<g id="edge23" class="edge"><title>F2ba3818&#45;&gt;F2ba3dd8</title>
<path fill="none" stroke="black" d="M837,-1076.43C837,-1068.46 837,-1059.57 837,-1051.08"/>
<polygon fill="black" stroke="black" points="840.5,-1051.02 837,-1041.02 833.5,-1051.02 840.5,-1051.02"/>
</g>
<!-- F2ba4ae8 -->
<g id="node35" class="node"><title>F2ba4ae8</title>
<ellipse fill="gray" stroke="gray" cx="1032" cy="-1014.01" rx="78.4777" ry="26.7407"/>
<text text-anchor="middle" x="1032" y="-1017.81" font-family="Times,serif" font-size="14.00">sqlite3HashInsert</text>
<text text-anchor="middle" x="1032" y="-1002.81" font-family="Times,serif" font-size="14.00">(hash.h)</text>
</g>
<!-- F2ba3818&#45;&gt;F2ba4ae8 -->
<g id="edge24" class="edge"><title>F2ba3818&#45;&gt;F2ba4ae8</title>
<path fill="none" stroke="black" d="M885.202,-1081.06C912.884,-1068.61 947.759,-1052.92 976.571,-1039.95"/>
<polygon fill="black" stroke="black" points="978.012,-1043.14 985.695,-1035.85 975.139,-1036.76 978.012,-1043.14"/>
</g>
<!-- F2ba5fb8 -->
<g id="node36" class="node"><title>F2ba5fb8</title>
<ellipse fill="chartreuse" stroke="chartreuse" cx="1480" cy="-1283.23" rx="66.4361" ry="26.7407"/>
<text text-anchor="middle" x="1480" y="-1287.03" font-family="Times,serif" font-size="14.00">sqlite3Prepare</text>
<text text-anchor="middle" x="1480" y="-1272.03" font-family="Times,serif" font-size="14.00">(prepare.c)</text>
</g>
<!-- F2ba6f28 -->
<g id="node37" class="node"><title>F2ba6f28</title>
<ellipse fill="chartreuse" stroke="chartreuse" cx="1479" cy="-1193.49" rx="77.1494" ry="26.7407"/>
<text text-anchor="middle" x="1479" y="-1197.29" font-family="Times,serif" font-size="14.00">sqlite3RunParser</text>
<text text-anchor="middle" x="1479" y="-1182.29" font-family="Times,serif" font-size="14.00">(tokenize.c)</text>
</g>
<!-- F2ba5fb8&#45;&gt;F2ba6f28 -->
<g id="edge25" class="edge"><title>F2ba5fb8&#45;&gt;F2ba6f28</title>
<path fill="none" stroke="black" d="M1479.7,-1255.91C1479.61,-1247.94 1479.51,-1239.05 1479.41,-1230.56"/>
<polygon fill="black" stroke="black" points="1482.91,-1230.45 1479.3,-1220.5 1475.91,-1230.53 1482.91,-1230.45"/>
</g>
<!-- F2c1d9c8 -->
<g id="node38" class="node"><title>F2c1d9c8</title>
<ellipse fill="chartreuse" stroke="chartreuse" cx="1479" cy="-1103.75" rx="58.8803" ry="26.7407"/>
<text text-anchor="middle" x="1479" y="-1107.55" font-family="Times,serif" font-size="14.00">sqlite3Insert</text>
<text text-anchor="middle" x="1479" y="-1092.55" font-family="Times,serif" font-size="14.00">(insert.c)</text>
</g>
<!-- F2ba6f28&#45;&gt;F2c1d9c8 -->
<g id="edge26" class="edge"><title>F2ba6f28&#45;&gt;F2c1d9c8</title>
<path fill="none" stroke="black" d="M1479,-1166.17C1479,-1158.2 1479,-1149.31 1479,-1140.82"/>
<polygon fill="black" stroke="black" points="1482.5,-1140.76 1479,-1130.76 1475.5,-1140.76 1482.5,-1140.76"/>
</g>
<!-- F2c1ef28 -->
<g id="node52" class="node"><title>F2c1ef28</title>
<ellipse fill="chartreuse" stroke="chartreuse" cx="1479" cy="-1014.01" rx="94.5053" ry="26.7407"/>
<text text-anchor="middle" x="1479" y="-1017.81" font-family="Times,serif" font-size="14.00">sqlite3SrcListLookup</text>
<text text-anchor="middle" x="1479" y="-1002.81" font-family="Times,serif" font-size="14.00">(delete.c)</text>
</g>
<!-- F2c1d9c8&#45;&gt;F2c1ef28 -->
<g id="edge43" class="edge"><title>F2c1d9c8&#45;&gt;F2c1ef28</title>
<path fill="none" stroke="black" d="M1479,-1076.43C1479,-1068.46 1479,-1059.57 1479,-1051.08"/>
<polygon fill="black" stroke="black" points="1482.5,-1051.02 1479,-1041.02 1475.5,-1051.02 1482.5,-1051.02"/>
</g>
<!-- F2ba7e48 -->
<g id="node39" class="node"><title>F2ba7e48</title>
<ellipse fill="chartreuse" stroke="chartreuse" cx="1532" cy="-206.35" rx="72.6644" ry="26.7407"/>
<text text-anchor="middle" x="1532" y="-210.15" font-family="Times,serif" font-size="14.00">sqlite3Prepare&#39;2</text>
<text text-anchor="middle" x="1532" y="-195.15" font-family="Times,serif" font-size="14.00">(prepare.c)</text>
</g>
<!-- F2ba7e48&#45;&gt;F2b77468 -->
<g id="edge27" class="edge"><title>F2ba7e48&#45;&gt;F2b77468</title>
<path fill="none" stroke="black" d="M1532,-179.025C1532,-171.059 1532,-162.168 1532,-153.679"/>
<polygon fill="black" stroke="black" points="1535.5,-153.614 1532,-143.614 1528.5,-153.614 1535.5,-153.614"/>
</g>
<!-- F2ba9f18 -->
<g id="node40" class="node"><title>F2ba9f18</title>
<ellipse fill="chartreuse" stroke="chartreuse" cx="1479" cy="-924.271" rx="103.476" ry="26.7407"/>
<text text-anchor="middle" x="1479" y="-928.071" font-family="Times,serif" font-size="14.00">sqlite3LocateTableItem</text>
<text text-anchor="middle" x="1479" y="-913.071" font-family="Times,serif" font-size="14.00">(build.c)</text>
</g>
<!-- F2ba9f18&#45;&gt;F2b6d0f8 -->
<g id="edge28" class="edge"><title>F2ba9f18&#45;&gt;F2b6d0f8</title>
<path fill="none" stroke="black" d="M1479,-896.946C1479,-888.98 1479,-880.089 1479,-871.6"/>
<polygon fill="black" stroke="black" points="1482.5,-871.535 1479,-861.535 1475.5,-871.535 1482.5,-871.535"/>
</g>
<!-- F2bd4898 -->
<g id="node41" class="node"><title>F2bd4898</title>
<ellipse fill="darkgoldenrod" stroke="darkgoldenrod" cx="511" cy="-1462.71" rx="79.8062" ry="26.7407"/>
<text text-anchor="middle" x="511" y="-1466.51" font-family="Times,serif" font-size="14.00">sqlite3BtreeClose</text>
<text text-anchor="middle" x="511" y="-1451.51" font-family="Times,serif" font-size="14.00">(btree.h)</text>
</g>
<!-- F2bd5ed8 -->
<g id="node42" class="node"><title>F2bd5ed8</title>
<ellipse fill="gray" stroke="gray" cx="687" cy="-1462.71" rx="77.5641" ry="26.7407"/>
<text text-anchor="middle" x="687" y="-1466.51" font-family="Times,serif" font-size="14.00">sqlite3HashClear</text>
<text text-anchor="middle" x="687" y="-1451.51" font-family="Times,serif" font-size="14.00">(hash.h)</text>
</g>
<!-- F2bd5ed8&#45;&gt;F2b652c8 -->
<g id="edge29" class="edge"><title>F2bd5ed8&#45;&gt;F2b652c8</title>
<path fill="none" stroke="black" d="M630.021,-1444.33C620.039,-1441.41 609.734,-1438.48 600,-1435.84 534.326,-1418.06 458.45,-1399.81 407.053,-1387.78"/>
<polygon fill="black" stroke="black" points="407.644,-1384.32 397.11,-1385.46 406.053,-1391.14 407.644,-1384.32"/>
</g>
<!-- F2c46da8 -->
<g id="node44" class="node"><title>F2c46da8</title>
<ellipse fill="gold" stroke="gold" cx="1436" cy="-385.831" rx="84.2917" ry="26.7407"/>
<text text-anchor="middle" x="1436" y="-389.631" font-family="Times,serif" font-size="14.00">sqlite3InitCallback</text>
<text text-anchor="middle" x="1436" y="-374.631" font-family="Times,serif" font-size="14.00">(vdbe.c)</text>
</g>
<!-- F2be0328&#45;&gt;F2c46da8 -->
<g id="edge31" class="edge"><title>F2be0328&#45;&gt;F2c46da8</title>
<path fill="none" stroke="black" d="M1467.74,-538.823C1463.24,-527.809 1458.34,-514.667 1455,-502.441 1447.85,-476.235 1442.99,-445.909 1439.97,-422.893"/>
<polygon fill="black" stroke="black" points="1443.43,-422.36 1438.72,-412.873 1436.49,-423.231 1443.43,-422.36"/>
</g>
<!-- F2c47c98 -->
<g id="node45" class="node"><title>F2c47c98</title>
<ellipse fill="gray" stroke="gray" cx="1523" cy="-475.571" rx="59.2941" ry="26.7407"/>
<text text-anchor="middle" x="1523" y="-479.371" font-family="Times,serif" font-size="14.00">sqlite3_exec</text>
<text text-anchor="middle" x="1523" y="-464.371" font-family="Times,serif" font-size="14.00">(legacy.c)</text>
</g>
<!-- F2be0328&#45;&gt;F2c47c98 -->
<g id="edge32" class="edge"><title>F2be0328&#45;&gt;F2c47c98</title>
<path fill="none" stroke="black" d="M1491.73,-538.933C1496.1,-530.202 1501.08,-520.276 1505.76,-510.95"/>
<polygon fill="black" stroke="black" points="1508.95,-512.4 1510.3,-501.892 1502.69,-509.262 1508.95,-512.4"/>
</g>
<!-- F2bf0b88 -->
<g id="node50" class="node"><title>F2bf0b88</title>
<ellipse fill="chartreuse" stroke="chartreuse" cx="1532" cy="-296.09" rx="108.789" ry="26.7407"/>
<text text-anchor="middle" x="1532" y="-299.89" font-family="Times,serif" font-size="14.00">sqlite3LockAndPrepare&#39;2</text>
<text text-anchor="middle" x="1532" y="-284.89" font-family="Times,serif" font-size="14.00">(prepare.c)</text>
</g>
<!-- F2c46da8&#45;&gt;F2bf0b88 -->
<g id="edge48" class="edge"><title>F2c46da8&#45;&gt;F2bf0b88</title>
<path fill="none" stroke="black" d="M1463,-360.157C1473.54,-350.52 1485.77,-339.344 1496.98,-329.1"/>
<polygon fill="black" stroke="black" points="1499.52,-331.518 1504.54,-322.188 1494.8,-326.351 1499.52,-331.518"/>
</g>
<!-- F2c47c98&#45;&gt;F2c46da8 -->
<g id="edge50" class="edge"><title>F2c47c98&#45;&gt;F2c46da8</title>
<path fill="none" stroke="black" d="M1499.23,-450.595C1489.59,-440.878 1478.32,-429.509 1467.98,-419.083"/>
<polygon fill="black" stroke="black" points="1470.18,-416.331 1460.65,-411.695 1465.21,-421.26 1470.18,-416.331"/>
</g>
<!-- F2c46648 -->
<g id="node55" class="node"><title>F2c46648</title>
<ellipse fill="chartreuse" stroke="chartreuse" cx="1629" cy="-385.831" rx="91.4341" ry="26.7407"/>
<text text-anchor="middle" x="1629" y="-389.631" font-family="Times,serif" font-size="14.00">sqlite3_prepare_v2&#39;2</text>
<text text-anchor="middle" x="1629" y="-374.631" font-family="Times,serif" font-size="14.00">(prepare.c)</text>
</g>
<!-- F2c47c98&#45;&gt;F2c46648 -->
<g id="edge49" class="edge"><title>F2c47c98&#45;&gt;F2c46648</title>
<path fill="none" stroke="black" d="M1550.57,-451.747C1563.09,-441.39 1578.08,-428.983 1591.58,-417.802"/>
<polygon fill="black" stroke="black" points="1593.86,-420.458 1599.33,-411.386 1589.4,-415.066 1593.86,-420.458"/>
</g>
<!-- F2bec788 -->
<g id="node46" class="node"><title>F2bec788</title>
<ellipse fill="gray" stroke="gray" cx="511" cy="-1731.93" rx="61.5366" ry="26.7407"/>
<text text-anchor="middle" x="511" y="-1735.73" font-family="Times,serif" font-size="14.00">sqlite3_close</text>
<text text-anchor="middle" x="511" y="-1720.73" font-family="Times,serif" font-size="14.00">(main.c)</text>
</g>
<!-- F2becb48 -->
<g id="node47" class="node"><title>F2becb48</title>
<ellipse fill="gray" stroke="gray" cx="511" cy="-1642.19" rx="58.8803" ry="26.7407"/>
<text text-anchor="middle" x="511" y="-1645.99" font-family="Times,serif" font-size="14.00">sqlite3Close</text>
<text text-anchor="middle" x="511" y="-1630.99" font-family="Times,serif" font-size="14.00">(main.c)</text>
</g>
<!-- F2bec788&#45;&gt;F2becb48 -->
<g id="edge33" class="edge"><title>F2bec788&#45;&gt;F2becb48</title>
<path fill="none" stroke="black" d="M511,-1704.61C511,-1696.64 511,-1687.75 511,-1679.26"/>
<polygon fill="black" stroke="black" points="514.5,-1679.2 511,-1669.2 507.5,-1679.2 514.5,-1679.2"/>
</g>
<!-- F2bed9c8 -->
<g id="node48" class="node"><title>F2bed9c8</title>
<ellipse fill="gray" stroke="gray" cx="511" cy="-1552.45" rx="149.813" ry="26.7407"/>
<text text-anchor="middle" x="511" y="-1556.25" font-family="Times,serif" font-size="14.00">sqlite3LeaveMutexAndCloseZombi</text>
<text text-anchor="middle" x="511" y="-1541.25" font-family="Times,serif" font-size="14.00">(main.c)</text>
</g>
<!-- F2becb48&#45;&gt;F2bed9c8 -->
<g id="edge34" class="edge"><title>F2becb48&#45;&gt;F2bed9c8</title>
<path fill="none" stroke="black" d="M511,-1614.87C511,-1606.9 511,-1598.01 511,-1589.52"/>
<polygon fill="black" stroke="black" points="514.5,-1589.46 511,-1579.46 507.5,-1589.46 514.5,-1589.46"/>
</g>
<!-- F2bed9c8&#45;&gt;F2b652c8 -->
<g id="edge35" class="edge"><title>F2bed9c8&#45;&gt;F2b652c8</title>
<path fill="none" stroke="black" d="M413.246,-1532.02C351.296,-1518.71 281.15,-1501.4 272,-1489.58 257.38,-1470.7 261.815,-1457.45 272,-1435.84 278.731,-1421.56 290.552,-1409.46 302.847,-1399.85"/>
<polygon fill="black" stroke="black" points="304.962,-1402.64 310.946,-1393.9 300.816,-1397 304.962,-1402.64"/>
</g>
<!-- F2bed9c8&#45;&gt;F2b740e8 -->
<g id="edge36" class="edge"><title>F2bed9c8&#45;&gt;F2b740e8</title>
<path fill="none" stroke="black" d="M464.88,-1526.78C442.981,-1515.06 416.828,-1501.07 394.727,-1489.25"/>
<polygon fill="black" stroke="black" points="396.312,-1486.12 385.844,-1484.49 393.01,-1492.3 396.312,-1486.12"/>
</g>
<!-- F2bed9c8&#45;&gt;F2bd4898 -->
<g id="edge37" class="edge"><title>F2bed9c8&#45;&gt;F2bd4898</title>
<path fill="none" stroke="black" d="M511,-1525.13C511,-1517.16 511,-1508.27 511,-1499.78"/>
<polygon fill="black" stroke="black" points="514.5,-1499.72 511,-1489.72 507.5,-1499.72 514.5,-1499.72"/>
</g>
<!-- F2bed9c8&#45;&gt;F2bd5ed8 -->
<g id="edge38" class="edge"><title>F2bed9c8&#45;&gt;F2bd5ed8</title>
<path fill="none" stroke="black" d="M560.026,-1527.01C583.282,-1515.42 611.09,-1501.55 634.746,-1489.76"/>
<polygon fill="black" stroke="black" points="636.538,-1492.78 643.926,-1485.19 633.415,-1486.51 636.538,-1492.78"/>
</g>
<!-- F2bf03e8 -->
<g id="node49" class="node"><title>F2bf03e8</title>
<ellipse fill="chartreuse" stroke="chartreuse" cx="1480" cy="-1372.97" rx="102.561" ry="26.7407"/>
<text text-anchor="middle" x="1480" y="-1376.77" font-family="Times,serif" font-size="14.00">sqlite3LockAndPrepare</text>
<text text-anchor="middle" x="1480" y="-1361.77" font-family="Times,serif" font-size="14.00">(prepare.c)</text>
</g>
<!-- F2bf03e8&#45;&gt;F2ba5fb8 -->
<g id="edge40" class="edge"><title>F2bf03e8&#45;&gt;F2ba5fb8</title>
<path fill="none" stroke="black" d="M1480,-1345.65C1480,-1337.68 1480,-1328.79 1480,-1320.3"/>
<polygon fill="black" stroke="black" points="1483.5,-1320.24 1480,-1310.24 1476.5,-1320.24 1483.5,-1320.24"/>
</g>
<!-- F2bf0b88&#45;&gt;F2ba7e48 -->
<g id="edge41" class="edge"><title>F2bf0b88&#45;&gt;F2ba7e48</title>
<path fill="none" stroke="black" d="M1532,-268.765C1532,-260.799 1532,-251.908 1532,-243.419"/>
<polygon fill="black" stroke="black" points="1535.5,-243.354 1532,-233.354 1528.5,-243.354 1535.5,-243.354"/>
</g>
<!-- F2c1cfa8 -->
<g id="node51" class="node"><title>F2c1cfa8</title>
<ellipse fill="gray" stroke="gray" cx="884" cy="-1462.71" rx="101.233" ry="26.7407"/>
<text text-anchor="middle" x="884" y="-1466.51" font-family="Times,serif" font-size="14.00">sqlite3_create_function</text>
<text text-anchor="middle" x="884" y="-1451.51" font-family="Times,serif" font-size="14.00">(main.c)</text>
</g>
<!-- F2c1cfa8&#45;&gt;F2b87248 -->
<g id="edge42" class="edge"><title>F2c1cfa8&#45;&gt;F2b87248</title>
<path fill="none" stroke="black" d="M859.643,-1436.28C829.598,-1404.92 778.462,-1351.53 745.469,-1317.09"/>
<polygon fill="black" stroke="black" points="747.757,-1314.41 738.312,-1309.61 742.701,-1319.26 747.757,-1314.41"/>
</g>
<!-- F2c1ef28&#45;&gt;F2ba9f18 -->
<g id="edge44" class="edge"><title>F2c1ef28&#45;&gt;F2ba9f18</title>
<path fill="none" stroke="black" d="M1479,-986.686C1479,-978.72 1479,-969.829 1479,-961.34"/>
<polygon fill="black" stroke="black" points="1482.5,-961.275 1479,-951.275 1475.5,-961.275 1482.5,-961.275"/>
</g>
<!-- F2c43f78 -->
<g id="node53" class="node"><title>F2c43f78</title>
<ellipse fill="gray" stroke="gray" cx="1064" cy="-1462.71" rx="60.623" ry="26.7407"/>
<text text-anchor="middle" x="1064" y="-1466.51" font-family="Times,serif" font-size="14.00">sqlite3_open</text>
<text text-anchor="middle" x="1064" y="-1451.51" font-family="Times,serif" font-size="14.00">(main.c)</text>
</g>
<!-- F2c43f78&#45;&gt;F2b837c8 -->
<g id="edge45" class="edge"><title>F2c43f78&#45;&gt;F2b837c8</title>
<path fill="none" stroke="black" d="M1064,-1435.39C1064,-1427.42 1064,-1418.53 1064,-1410.04"/>
<polygon fill="black" stroke="black" points="1067.5,-1409.98 1064,-1399.98 1060.5,-1409.98 1067.5,-1409.98"/>
</g>
<!-- F2c46078 -->
<g id="node54" class="node"><title>F2c46078</title>
<ellipse fill="chartreuse" stroke="chartreuse" cx="1480" cy="-1462.71" rx="84.7059" ry="26.7407"/>
<text text-anchor="middle" x="1480" y="-1466.51" font-family="Times,serif" font-size="14.00">sqlite3_prepare_v2</text>
<text text-anchor="middle" x="1480" y="-1451.51" font-family="Times,serif" font-size="14.00">(prepare.c)</text>
</g>
<!-- F2c46078&#45;&gt;F2bf03e8 -->
<g id="edge46" class="edge"><title>F2c46078&#45;&gt;F2bf03e8</title>
<path fill="none" stroke="black" d="M1480,-1435.39C1480,-1427.42 1480,-1418.53 1480,-1410.04"/>
<polygon fill="black" stroke="black" points="1483.5,-1409.98 1480,-1399.98 1476.5,-1409.98 1483.5,-1409.98"/>
</g>
<!-- F2c46648&#45;&gt;F2bf0b88 -->
<g id="edge47" class="edge"><title>F2c46648&#45;&gt;F2bf0b88</title>
<path fill="none" stroke="black" d="M1601.72,-360.157C1591.07,-350.52 1578.71,-339.344 1567.39,-329.1"/>
<polygon fill="black" stroke="black" points="1569.51,-326.301 1559.75,-322.188 1564.81,-331.492 1569.51,-326.301"/>
</g>
<!-- F2cc7108 -->
<g id="node56" class="node"><title>F2cc7108</title>
<ellipse fill="bisque" stroke="bisque" cx="963" cy="-1642.19" rx="88.2768" ry="26.7407"/>
<text text-anchor="middle" x="963" y="-1645.99" font-family="Times,serif" font-size="14.00">do_meta_command</text>
<text text-anchor="middle" x="963" y="-1630.99" font-family="Times,serif" font-size="14.00">(shell.c)</text>
</g>
<!-- F2cc7e98 -->
<g id="node57" class="node"><title>F2cc7e98</title>
<ellipse fill="bisque" stroke="bisque" cx="963" cy="-1552.45" rx="44.5955" ry="26.7407"/>
<text text-anchor="middle" x="963" y="-1556.25" font-family="Times,serif" font-size="14.00">open_db</text>
<text text-anchor="middle" x="963" y="-1541.25" font-family="Times,serif" font-size="14.00">(shell.c)</text>
</g>
<!-- F2cc7108&#45;&gt;F2cc7e98 -->
<g id="edge51" class="edge"><title>F2cc7108&#45;&gt;F2cc7e98</title>
<path fill="none" stroke="black" d="M963,-1614.87C963,-1606.9 963,-1598.01 963,-1589.52"/>
<polygon fill="black" stroke="black" points="966.5,-1589.46 963,-1579.46 959.5,-1589.46 966.5,-1589.46"/>
</g>
<!-- F2cc7e98&#45;&gt;F2c1cfa8 -->
<g id="edge52" class="edge"><title>F2cc7e98&#45;&gt;F2c1cfa8</title>
<path fill="none" stroke="black" d="M942.244,-1528.4C933.488,-1518.68 923.134,-1507.18 913.601,-1496.59"/>
<polygon fill="black" stroke="black" points="916.132,-1494.17 906.84,-1489.08 910.93,-1498.85 916.132,-1494.17"/>
</g>
<!-- F2cc7e98&#45;&gt;F2c43f78 -->
<g id="edge53" class="edge"><title>F2cc7e98&#45;&gt;F2c43f78</title>
<path fill="none" stroke="black" d="M987.707,-1529.99C1000.21,-1519.13 1015.58,-1505.77 1029.25,-1493.9"/>
<polygon fill="black" stroke="black" points="1031.81,-1496.31 1037.07,-1487.11 1027.22,-1491.03 1031.81,-1496.31"/>
</g>
<!-- F2cc8768 -->
<g id="node58" class="node"><title>F2cc8768</title>
<ellipse fill="bisque" stroke="bisque" cx="1673" cy="-1462.71" rx="89.191" ry="26.7407"/>
<text text-anchor="middle" x="1673" y="-1466.51" font-family="Times,serif" font-size="14.00">exec_prepared_stmt</text>
<text text-anchor="middle" x="1673" y="-1451.51" font-family="Times,serif" font-size="14.00">(shell.c)</text>
</g>
<!-- F2cc8768&#45;&gt;F2b763e8 -->
<g id="edge54" class="edge"><title>F2cc8768&#45;&gt;F2b763e8</title>
<path fill="none" stroke="black" d="M1673,-1435.39C1673,-1427.42 1673,-1418.53 1673,-1410.04"/>
<polygon fill="black" stroke="black" points="1676.5,-1409.98 1673,-1399.98 1669.5,-1409.98 1676.5,-1409.98"/>
</g>
<!-- F2cc8bc8 -->
<g id="node59" class="node"><title>F2cc8bc8</title>
<ellipse fill="bisque" stroke="bisque" cx="660" cy="-1731.93" rx="69.0935" ry="26.7407"/>
<text text-anchor="middle" x="660" y="-1735.73" font-family="Times,serif" font-size="14.00">find_home_dir</text>
<text text-anchor="middle" x="660" y="-1720.73" font-family="Times,serif" font-size="14.00">(shell.c)</text>
</g>
<!-- F2cc93d8 -->
<g id="node60" class="node"><title>F2cc93d8</title>
<ellipse fill="bisque" stroke="bisque" cx="1297" cy="-1642.19" rx="70.922" ry="26.7407"/>
<text text-anchor="middle" x="1297" y="-1645.99" font-family="Times,serif" font-size="14.00">runOneSqlLine</text>
<text text-anchor="middle" x="1297" y="-1630.99" font-family="Times,serif" font-size="14.00">(shell.c)</text>
</g>
<!-- F2cc9998 -->
<g id="node61" class="node"><title>F2cc9998</title>
<ellipse fill="bisque" stroke="bisque" cx="1480" cy="-1552.45" rx="52.1524" ry="26.7407"/>
<text text-anchor="middle" x="1480" y="-1556.25" font-family="Times,serif" font-size="14.00">shell_exec</text>
<text text-anchor="middle" x="1480" y="-1541.25" font-family="Times,serif" font-size="14.00">(shell.c)</text>
</g>
<!-- F2cc93d8&#45;&gt;F2cc9998 -->
<g id="edge55" class="edge"><title>F2cc93d8&#45;&gt;F2cc9998</title>
<path fill="none" stroke="black" d="M1339.91,-1620.62C1368.03,-1607.14 1404.77,-1589.52 1433.58,-1575.71"/>
<polygon fill="black" stroke="black" points="1435.13,-1578.85 1442.63,-1571.37 1432.1,-1572.54 1435.13,-1578.85"/>
</g>
<!-- F2cc9998&#45;&gt;F2c46078 -->
<g id="edge56" class="edge"><title>F2cc9998&#45;&gt;F2c46078</title>
<path fill="none" stroke="black" d="M1480,-1525.13C1480,-1517.16 1480,-1508.27 1480,-1499.78"/>
<polygon fill="black" stroke="black" points="1483.5,-1499.72 1480,-1489.72 1476.5,-1499.72 1483.5,-1499.72"/>
</g>
<!-- F2cc9998&#45;&gt;F2cc8768 -->
<g id="edge57" class="edge"><title>F2cc9998&#45;&gt;F2cc8768</title>
<path fill="none" stroke="black" d="M1518.59,-1533.91C1546.41,-1521.26 1584.41,-1503.99 1615.75,-1489.74"/>
<polygon fill="black" stroke="black" points="1617.59,-1492.75 1625.24,-1485.42 1614.69,-1486.38 1617.59,-1492.75"/>
</g>
<!-- F2ccc488 -->
<g id="node62" class="node"><title>F2ccc488</title>
<ellipse fill="lightgrey" stroke="black" cx="585" cy="-1821.67" rx="28.6953" ry="18"/>
<text text-anchor="middle" x="585" y="-1817.97" font-family="Times,serif" font-size="14.00">main</text>
</g>
<!-- F2ccc488&#45;&gt;F2b61ff8 -->
<g id="edge58" class="edge"><title>F2ccc488&#45;&gt;F2b61ff8</title>
<path fill="none" stroke="black" d="M572.44,-1805.25C566.315,-1798.66 558.45,-1791.44 550,-1786.8 543.117,-1783.02 460.681,-1763.76 397.567,-1749.34"/>
<polygon fill="black" stroke="black" points="398.146,-1745.88 387.618,-1747.07 396.589,-1752.71 398.146,-1745.88"/>
</g>
<!-- F2ccc488&#45;&gt;F2bec788 -->
<g id="edge59" class="edge"><title>F2ccc488&#45;&gt;F2bec788</title>
<path fill="none" stroke="black" d="M572.11,-1805.39C562.764,-1794.31 549.782,-1778.92 538.187,-1765.17"/>
<polygon fill="black" stroke="black" points="540.681,-1762.69 531.558,-1757.31 535.33,-1767.21 540.681,-1762.69"/>
</g>
<!-- F2ccc488&#45;&gt;F2cc8bc8 -->
<g id="edge60" class="edge"><title>F2ccc488&#45;&gt;F2cc8bc8</title>
<path fill="none" stroke="black" d="M598.064,-1805.39C607.466,-1794.39 620.499,-1779.14 632.184,-1765.47"/>
<polygon fill="black" stroke="black" points="635.034,-1767.53 638.871,-1757.65 629.713,-1762.98 635.034,-1767.53"/>
</g>
<!-- F2ccdb48 -->
<g id="node63" class="node"><title>F2ccdb48</title>
<ellipse fill="bisque" stroke="bisque" cx="963" cy="-1731.93" rx="65.1077" ry="26.7407"/>
<text text-anchor="middle" x="963" y="-1735.73" font-family="Times,serif" font-size="14.00">process_input</text>
<text text-anchor="middle" x="963" y="-1720.73" font-family="Times,serif" font-size="14.00">(shell.c)</text>
</g>
<!-- F2ccc488&#45;&gt;F2ccdb48 -->
<g id="edge61" class="edge"><title>F2ccc488&#45;&gt;F2ccdb48</title>
<path fill="none" stroke="black" d="M611.28,-1814.57C669.902,-1800.97 812.833,-1767.79 897.346,-1748.17"/>
<polygon fill="black" stroke="black" points="898.151,-1751.58 907.101,-1745.91 896.568,-1744.76 898.151,-1751.58"/>
</g>
<!-- F2ccdb48&#45;&gt;F2cc7108 -->
<g id="edge62" class="edge"><title>F2ccdb48&#45;&gt;F2cc7108</title>
<path fill="none" stroke="black" d="M963,-1704.61C963,-1696.64 963,-1687.75 963,-1679.26"/>
<polygon fill="black" stroke="black" points="966.5,-1679.2 963,-1669.2 959.5,-1679.2 966.5,-1679.2"/>
</g>
<!-- F2ccdb48&#45;&gt;F2cc93d8 -->
<g id="edge63" class="edge"><title>F2ccdb48&#45;&gt;F2cc93d8</title>
<path fill="none" stroke="black" d="M1017.03,-1716.74C1075.13,-1701.48 1167.56,-1677.19 1230.18,-1660.74"/>
<polygon fill="black" stroke="black" points="1231.19,-1664.1 1239.97,-1658.17 1229.41,-1657.33 1231.19,-1664.1"/>
</g>
</g>
</svg>
