<?xml version="1.0" encoding="UTF-8" standalone="no"?>
<!DOCTYPE svg PUBLIC "-//W3C//DTD SVG 1.1//EN"
 "http://www.w3.org/Graphics/SVG/1.1/DTD/svg11.dtd">
<!-- Generated by graphviz version 2.38.0 (20140413.2041)
 -->
<!-- Title: callgraph Pages: 1 -->
<svg width="1436pt" height="2052pt"
 viewBox="0.00 0.00 1435.91 2052.02" xmlns="http://www.w3.org/2000/svg" xmlns:xlink="http://www.w3.org/1999/xlink">
<g id="graph0" class="graph" transform="scale(1 1) rotate(0) translate(4 2048.02)">
<title>callgraph</title>
<polygon fill="white" stroke="none" points="-4,4 -4,-2048.02 1431.91,-2048.02 1431.91,4 -4,4"/>
<g id="clust1" class="cluster"><title>cluster_legend</title>
<polygon fill="none" stroke="black" points="83.7609,-1966.28 83.7609,-2036.02 621.761,-2036.02 621.761,-1966.28 83.7609,-1966.28"/>
</g>
<!-- Frontend -->
<g id="node1" class="node"><title>Frontend</title>
<ellipse fill="chartreuse" stroke="chartreuse" cx="571.761" cy="-2001.15" rx="42.4939" ry="18"/>
<text text-anchor="middle" x="571.761" y="-1997.45" font-family="Times,serif" font-size="14.00">Frontend</text>
</g>
<!-- Pager
(Backend) -->
<g id="node2" class="node"><title>Pager
(Backend)</title>
<ellipse fill="darkorange" stroke="darkorange" cx="459.761" cy="-2001.15" rx="51.7379" ry="26.7407"/>
<text text-anchor="middle" x="459.761" y="-2004.95" font-family="Times,serif" font-size="14.00">Pager</text>
<text text-anchor="middle" x="459.761" y="-1989.95" font-family="Times,serif" font-size="14.00">(Backend)</text>
</g>
<!-- Tree
(Backend) -->
<g id="node3" class="node"><title>Tree
(Backend)</title>
<ellipse fill="darkgoldenrod" stroke="darkgoldenrod" cx="338.761" cy="-2001.15" rx="51.7379" ry="26.7407"/>
<text text-anchor="middle" x="338.761" y="-2004.95" font-family="Times,serif" font-size="14.00">Tree</text>
<text text-anchor="middle" x="338.761" y="-1989.95" font-family="Times,serif" font-size="14.00">(Backend)</text>
</g>
<!-- Unknown -->
<g id="node4" class="node"><title>Unknown</title>
<ellipse fill="gray" stroke="gray" cx="223.761" cy="-2001.15" rx="45.4919" ry="18"/>
<text text-anchor="middle" x="223.761" y="-1997.45" font-family="Times,serif" font-size="14.00">Unknown</text>
</g>
<!-- VDBE -->
<g id="node5" class="node"><title>VDBE</title>
<ellipse fill="gold" stroke="gold" cx="125.761" cy="-2001.15" rx="34.394" ry="18"/>
<text text-anchor="middle" x="125.761" y="-1997.45" font-family="Times,serif" font-size="14.00">VDBE</text>
</g>
<!-- F2010728 -->
<g id="node6" class="node"><title>F2010728</title>
<ellipse fill="gray" stroke="gray" cx="569.761" cy="-1731.93" rx="108.375" ry="26.7407"/>
<text text-anchor="middle" x="569.761" y="-1735.73" font-family="Times,serif" font-size="14.00">sqlite3InsertBuiltinFuncs</text>
<text text-anchor="middle" x="569.761" y="-1720.73" font-family="Times,serif" font-size="14.00">(callback.c)</text>
</g>
<!-- F20118e8 -->
<g id="node7" class="node"><title>F20118e8</title>
<ellipse fill="gray" stroke="gray" cx="795.761" cy="-1103.75" rx="65.1077" ry="26.7407"/>
<text text-anchor="middle" x="795.761" y="-1107.55" font-family="Times,serif" font-size="14.00">sqlite3Malloc</text>
<text text-anchor="middle" x="795.761" y="-1092.55" font-family="Times,serif" font-size="14.00">(malloc.c)</text>
</g>
<!-- F2013f28 -->
<g id="node8" class="node"><title>F2013f28</title>
<ellipse fill="gray" stroke="gray" cx="388.761" cy="-1014.01" rx="107.46" ry="26.7407"/>
<text text-anchor="middle" x="388.761" y="-1017.81" font-family="Times,serif" font-size="14.00">sqlite3DbMallocRawNN</text>
<text text-anchor="middle" x="388.761" y="-1002.81" font-family="Times,serif" font-size="14.00">(malloc.c)</text>
</g>
<!-- F2018348 -->
<g id="node9" class="node"><title>F2018348</title>
<ellipse fill="chartreuse" stroke="chartreuse" cx="1299.76" cy="-1283.23" rx="60.623" ry="26.7407"/>
<text text-anchor="middle" x="1299.76" y="-1287.03" font-family="Times,serif" font-size="14.00">sqlite3Select</text>
<text text-anchor="middle" x="1299.76" y="-1272.03" font-family="Times,serif" font-size="14.00">(select.c)</text>
</g>
<!-- F2018d58 -->
<g id="node10" class="node"><title>F2018d58</title>
<ellipse fill="chartreuse" stroke="chartreuse" cx="1299.76" cy="-1193.49" rx="77.5641" ry="26.7407"/>
<text text-anchor="middle" x="1299.76" y="-1197.29" font-family="Times,serif" font-size="14.00">sqlite3SelectPrep</text>
<text text-anchor="middle" x="1299.76" y="-1182.29" font-family="Times,serif" font-size="14.00">(resolve.c)</text>
</g>
<!-- F2018348&#45;&gt;F2018d58 -->
<g id="edge1" class="edge"><title>F2018348&#45;&gt;F2018d58</title>
<path fill="none" stroke="black" d="M1299.76,-1255.91C1299.76,-1247.94 1299.76,-1239.05 1299.76,-1230.56"/>
<polygon fill="black" stroke="black" points="1303.26,-1230.5 1299.76,-1220.5 1296.26,-1230.5 1303.26,-1230.5"/>
</g>
<!-- F2055228 -->
<g id="node11" class="node"><title>F2055228</title>
<ellipse fill="chartreuse" stroke="chartreuse" cx="1299.76" cy="-1103.75" rx="82.0488" ry="26.7407"/>
<text text-anchor="middle" x="1299.76" y="-1107.55" font-family="Times,serif" font-size="14.00">sqlite3WalkSelect</text>
<text text-anchor="middle" x="1299.76" y="-1092.55" font-family="Times,serif" font-size="14.00">(walker.c)</text>
</g>
<!-- F2018d58&#45;&gt;F2055228 -->
<g id="edge2" class="edge"><title>F2018d58&#45;&gt;F2055228</title>
<path fill="none" stroke="black" d="M1299.76,-1166.17C1299.76,-1158.2 1299.76,-1149.31 1299.76,-1140.82"/>
<polygon fill="black" stroke="black" points="1303.26,-1140.76 1299.76,-1130.76 1296.26,-1140.76 1303.26,-1140.76"/>
</g>
<!-- F2055e48 -->
<g id="node36" class="node"><title>F2055e48</title>
<ellipse fill="chartreuse" stroke="chartreuse" cx="1299.76" cy="-1014.01" rx="70.0071" ry="26.7407"/>
<text text-anchor="middle" x="1299.76" y="-1017.81" font-family="Times,serif" font-size="14.00">selectExpander</text>
<text text-anchor="middle" x="1299.76" y="-1002.81" font-family="Times,serif" font-size="14.00">(select.c)</text>
</g>
<!-- F2055228&#45;&gt;F2055e48 -->
<g id="edge23" class="edge"><title>F2055228&#45;&gt;F2055e48</title>
<path fill="none" stroke="black" d="M1299.76,-1076.43C1299.76,-1068.46 1299.76,-1059.57 1299.76,-1051.08"/>
<polygon fill="black" stroke="black" points="1303.26,-1051.02 1299.76,-1041.02 1296.26,-1051.02 1303.26,-1051.02"/>
</g>
<!-- F2019208 -->
<g id="node12" class="node"><title>F2019208</title>
<ellipse fill="gray" stroke="gray" cx="65.7609" cy="-1642.19" rx="65.5227" ry="26.7407"/>
<text text-anchor="middle" x="65.7609" y="-1645.99" font-family="Times,serif" font-size="14.00">sqlite3DbFree</text>
<text text-anchor="middle" x="65.7609" y="-1630.99" font-family="Times,serif" font-size="14.00">(malloc.c)</text>
</g>
<!-- F204a198 -->
<g id="node13" class="node"><title>F204a198</title>
<ellipse fill="gray" stroke="gray" cx="159.761" cy="-1552.45" rx="56.6372" ry="26.7407"/>
<text text-anchor="middle" x="159.761" y="-1556.25" font-family="Times,serif" font-size="14.00">sqlite3_free</text>
<text text-anchor="middle" x="159.761" y="-1541.25" font-family="Times,serif" font-size="14.00">(malloc.c)</text>
</g>
<!-- F2019208&#45;&gt;F204a198 -->
<g id="edge3" class="edge"><title>F2019208&#45;&gt;F204a198</title>
<path fill="none" stroke="black" d="M91.4468,-1617.22C102.505,-1606.89 115.561,-1594.71 127.281,-1583.77"/>
<polygon fill="black" stroke="black" points="129.834,-1586.17 134.756,-1576.79 125.057,-1581.06 129.834,-1586.17"/>
</g>
<!-- F201bf18 -->
<g id="node14" class="node"><title>F201bf18</title>
<ellipse fill="chartreuse" stroke="chartreuse" cx="1246.76" cy="-26.8701" rx="67.3507" ry="26.7407"/>
<text text-anchor="middle" x="1246.76" y="-30.6701" font-family="Times,serif" font-size="14.00">sqlite3Select&#39;2</text>
<text text-anchor="middle" x="1246.76" y="-15.6701" font-family="Times,serif" font-size="14.00">(select.c)</text>
</g>
<!-- F2020ca8 -->
<g id="node15" class="node"><title>F2020ca8</title>
<ellipse fill="gray" stroke="gray" cx="388.761" cy="-1193.49" rx="94.5053" ry="26.7407"/>
<text text-anchor="middle" x="388.761" y="-1197.29" font-family="Times,serif" font-size="14.00">sqlite3DbMallocZero</text>
<text text-anchor="middle" x="388.761" y="-1182.29" font-family="Times,serif" font-size="14.00">(malloc.c)</text>
</g>
<!-- F204e748 -->
<g id="node16" class="node"><title>F204e748</title>
<ellipse fill="gray" stroke="gray" cx="388.761" cy="-1103.75" rx="94.0904" ry="26.7407"/>
<text text-anchor="middle" x="388.761" y="-1107.55" font-family="Times,serif" font-size="14.00">sqlite3DbMallocRaw</text>
<text text-anchor="middle" x="388.761" y="-1092.55" font-family="Times,serif" font-size="14.00">(malloc.c)</text>
</g>
<!-- F2020ca8&#45;&gt;F204e748 -->
<g id="edge4" class="edge"><title>F2020ca8&#45;&gt;F204e748</title>
<path fill="none" stroke="black" d="M388.761,-1166.17C388.761,-1158.2 388.761,-1149.31 388.761,-1140.82"/>
<polygon fill="black" stroke="black" points="392.261,-1140.76 388.761,-1130.76 385.261,-1140.76 392.261,-1140.76"/>
</g>
<!-- F204e748&#45;&gt;F2013f28 -->
<g id="edge12" class="edge"><title>F204e748&#45;&gt;F2013f28</title>
<path fill="none" stroke="black" d="M388.761,-1076.43C388.761,-1068.46 388.761,-1059.57 388.761,-1051.08"/>
<polygon fill="black" stroke="black" points="392.261,-1051.02 388.761,-1041.02 385.261,-1051.02 392.261,-1051.02"/>
</g>
<!-- F2021c08 -->
<g id="node17" class="node"><title>F2021c08</title>
<ellipse fill="gray" stroke="gray" cx="600.761" cy="-1193.49" rx="98.9899" ry="26.7407"/>
<text text-anchor="middle" x="600.761" y="-1197.29" font-family="Times,serif" font-size="14.00">findElementWithHash</text>
<text text-anchor="middle" x="600.761" y="-1182.29" font-family="Times,serif" font-size="14.00">(hash.c)</text>
</g>
<!-- F2024928 -->
<g id="node18" class="node"><title>F2024928</title>
<ellipse fill="gray" stroke="gray" cx="267.761" cy="-1731.93" rx="149.813" ry="26.7407"/>
<text text-anchor="middle" x="267.761" y="-1735.73" font-family="Times,serif" font-size="14.00">sqlite3LeaveMutexAndCloseZombi</text>
<text text-anchor="middle" x="267.761" y="-1720.73" font-family="Times,serif" font-size="14.00">(main.c)</text>
</g>
<!-- F2024928&#45;&gt;F2019208 -->
<g id="edge5" class="edge"><title>F2024928&#45;&gt;F2019208</title>
<path fill="none" stroke="black" d="M212.296,-1706.84C183.229,-1694.22 147.799,-1678.83 119.058,-1666.34"/>
<polygon fill="black" stroke="black" points="120.153,-1663 109.587,-1662.23 117.364,-1669.42 120.153,-1663"/>
</g>
<!-- F2024928&#45;&gt;F204a198 -->
<g id="edge6" class="edge"><title>F2024928&#45;&gt;F204a198</title>
<path fill="none" stroke="black" d="M218.222,-1706.54C203.331,-1696.86 188.404,-1684.34 178.761,-1669.06 163.817,-1645.39 159.45,-1613.75 158.606,-1589.56"/>
<polygon fill="black" stroke="black" points="162.102,-1589.3 158.44,-1579.36 155.103,-1589.42 162.102,-1589.3"/>
</g>
<!-- F2092a28 -->
<g id="node19" class="node"><title>F2092a28</title>
<ellipse fill="darkgoldenrod" stroke="darkgoldenrod" cx="267.761" cy="-1642.19" rx="79.8062" ry="26.7407"/>
<text text-anchor="middle" x="267.761" y="-1645.99" font-family="Times,serif" font-size="14.00">sqlite3BtreeClose</text>
<text text-anchor="middle" x="267.761" y="-1630.99" font-family="Times,serif" font-size="14.00">(btree.h)</text>
</g>
<!-- F2024928&#45;&gt;F2092a28 -->
<g id="edge7" class="edge"><title>F2024928&#45;&gt;F2092a28</title>
<path fill="none" stroke="black" d="M267.761,-1704.61C267.761,-1696.64 267.761,-1687.75 267.761,-1679.26"/>
<polygon fill="black" stroke="black" points="271.261,-1679.2 267.761,-1669.2 264.261,-1679.2 271.261,-1679.2"/>
</g>
<!-- F2093d28 -->
<g id="node20" class="node"><title>F2093d28</title>
<ellipse fill="gray" stroke="gray" cx="443.761" cy="-1642.19" rx="77.5641" ry="26.7407"/>
<text text-anchor="middle" x="443.761" y="-1645.99" font-family="Times,serif" font-size="14.00">sqlite3HashClear</text>
<text text-anchor="middle" x="443.761" y="-1630.99" font-family="Times,serif" font-size="14.00">(hash.h)</text>
</g>
<!-- F2024928&#45;&gt;F2093d28 -->
<g id="edge8" class="edge"><title>F2024928&#45;&gt;F2093d28</title>
<path fill="none" stroke="black" d="M316.787,-1706.49C340.043,-1694.9 367.851,-1681.04 391.507,-1669.24"/>
<polygon fill="black" stroke="black" points="393.299,-1672.26 400.687,-1664.67 390.176,-1665.99 393.299,-1672.26"/>
</g>
<!-- F2093d28&#45;&gt;F204a198 -->
<g id="edge40" class="edge"><title>F2093d28&#45;&gt;F204a198</title>
<path fill="none" stroke="black" d="M386.972,-1623.65C337.348,-1608.32 265.692,-1586.18 216.179,-1570.88"/>
<polygon fill="black" stroke="black" points="217.172,-1567.53 206.584,-1567.92 215.106,-1574.21 217.172,-1567.53"/>
</g>
<!-- F20271e8 -->
<g id="node21" class="node"><title>F20271e8</title>
<ellipse fill="chartreuse" stroke="chartreuse" cx="1299.76" cy="-924.271" rx="103.476" ry="26.7407"/>
<text text-anchor="middle" x="1299.76" y="-928.071" font-family="Times,serif" font-size="14.00">sqlite3LocateTableItem</text>
<text text-anchor="middle" x="1299.76" y="-913.071" font-family="Times,serif" font-size="14.00">(build.c)</text>
</g>
<!-- F202e228 -->
<g id="node22" class="node"><title>F202e228</title>
<ellipse fill="chartreuse" stroke="chartreuse" cx="1299.76" cy="-834.531" rx="84.7059" ry="26.7407"/>
<text text-anchor="middle" x="1299.76" y="-838.331" font-family="Times,serif" font-size="14.00">sqlite3LocateTable</text>
<text text-anchor="middle" x="1299.76" y="-823.331" font-family="Times,serif" font-size="14.00">(build.c)</text>
</g>
<!-- F20271e8&#45;&gt;F202e228 -->
<g id="edge9" class="edge"><title>F20271e8&#45;&gt;F202e228</title>
<path fill="none" stroke="black" d="M1299.76,-896.946C1299.76,-888.98 1299.76,-880.089 1299.76,-871.6"/>
<polygon fill="black" stroke="black" points="1303.26,-871.535 1299.76,-861.535 1296.26,-871.535 1303.26,-871.535"/>
</g>
<!-- F205a448 -->
<g id="node23" class="node"><title>F205a448</title>
<ellipse fill="chartreuse" stroke="chartreuse" cx="1299.76" cy="-744.791" rx="87.8629" ry="26.7407"/>
<text text-anchor="middle" x="1299.76" y="-748.591" font-family="Times,serif" font-size="14.00">sqlite3ReadSchema</text>
<text text-anchor="middle" x="1299.76" y="-733.591" font-family="Times,serif" font-size="14.00">(prepare.c)</text>
</g>
<!-- F202e228&#45;&gt;F205a448 -->
<g id="edge10" class="edge"><title>F202e228&#45;&gt;F205a448</title>
<path fill="none" stroke="black" d="M1299.76,-807.206C1299.76,-799.239 1299.76,-790.348 1299.76,-781.86"/>
<polygon fill="black" stroke="black" points="1303.26,-781.795 1299.76,-771.795 1296.26,-781.795 1303.26,-781.795"/>
</g>
<!-- F205a7f8 -->
<g id="node37" class="node"><title>F205a7f8</title>
<ellipse fill="chartreuse" stroke="chartreuse" cx="1299.76" cy="-655.051" rx="53.9813" ry="26.7407"/>
<text text-anchor="middle" x="1299.76" y="-658.851" font-family="Times,serif" font-size="14.00">sqlite3Init</text>
<text text-anchor="middle" x="1299.76" y="-643.851" font-family="Times,serif" font-size="14.00">(prepare.c)</text>
</g>
<!-- F205a448&#45;&gt;F205a7f8 -->
<g id="edge27" class="edge"><title>F205a448&#45;&gt;F205a7f8</title>
<path fill="none" stroke="black" d="M1299.76,-717.466C1299.76,-709.499 1299.76,-700.608 1299.76,-692.12"/>
<polygon fill="black" stroke="black" points="1303.26,-692.055 1299.76,-682.055 1296.26,-692.055 1303.26,-692.055"/>
</g>
<!-- F204c928 -->
<g id="node24" class="node"><title>F204c928</title>
<ellipse fill="gray" stroke="gray" cx="569.761" cy="-1821.67" rx="75.8212" ry="26.7407"/>
<text text-anchor="middle" x="569.761" y="-1825.47" font-family="Times,serif" font-size="14.00">sqlite3_initialize</text>
<text text-anchor="middle" x="569.761" y="-1810.47" font-family="Times,serif" font-size="14.00">(mutex.c)</text>
</g>
<!-- F204c928&#45;&gt;F2010728 -->
<g id="edge11" class="edge"><title>F204c928&#45;&gt;F2010728</title>
<path fill="none" stroke="black" d="M569.761,-1794.35C569.761,-1786.38 569.761,-1777.49 569.761,-1769"/>
<polygon fill="black" stroke="black" points="573.261,-1768.94 569.761,-1758.94 566.261,-1768.94 573.261,-1768.94"/>
</g>
<!-- F204ee48 -->
<g id="node25" class="node"><title>F204ee48</title>
<ellipse fill="gray" stroke="gray" cx="360.761" cy="-1911.41" rx="61.5366" ry="26.7407"/>
<text text-anchor="middle" x="360.761" y="-1915.21" font-family="Times,serif" font-size="14.00">sqlite3_close</text>
<text text-anchor="middle" x="360.761" y="-1900.21" font-family="Times,serif" font-size="14.00">(main.c)</text>
</g>
<!-- F204f218 -->
<g id="node26" class="node"><title>F204f218</title>
<ellipse fill="gray" stroke="gray" cx="300.761" cy="-1821.67" rx="58.8803" ry="26.7407"/>
<text text-anchor="middle" x="300.761" y="-1825.47" font-family="Times,serif" font-size="14.00">sqlite3Close</text>
<text text-anchor="middle" x="300.761" y="-1810.47" font-family="Times,serif" font-size="14.00">(main.c)</text>
</g>
<!-- F204ee48&#45;&gt;F204f218 -->
<g id="edge13" class="edge"><title>F204ee48&#45;&gt;F204f218</title>
<path fill="none" stroke="black" d="M343.728,-1885.5C337.457,-1876.34 330.251,-1865.8 323.554,-1856"/>
<polygon fill="black" stroke="black" points="326.37,-1853.92 317.837,-1847.64 320.592,-1857.87 326.37,-1853.92"/>
</g>
<!-- F204f218&#45;&gt;F2024928 -->
<g id="edge14" class="edge"><title>F204f218&#45;&gt;F2024928</title>
<path fill="none" stroke="black" d="M291.038,-1794.82C287.911,-1786.51 284.39,-1777.15 281.052,-1768.27"/>
<polygon fill="black" stroke="black" points="284.324,-1767.03 277.528,-1758.9 277.773,-1769.49 284.324,-1767.03"/>
</g>
<!-- F20516a8 -->
<g id="node27" class="node"><title>F20516a8</title>
<ellipse fill="gray" stroke="gray" cx="600.761" cy="-1372.97" rx="81.135" ry="26.7407"/>
<text text-anchor="middle" x="600.761" y="-1376.77" font-family="Times,serif" font-size="14.00">sqlite3CreateFunc</text>
<text text-anchor="middle" x="600.761" y="-1361.77" font-family="Times,serif" font-size="14.00">(main.c)</text>
</g>
<!-- F2051c68 -->
<g id="node28" class="node"><title>F2051c68</title>
<ellipse fill="gray" stroke="gray" cx="600.761" cy="-1283.23" rx="88.2768" ry="26.7407"/>
<text text-anchor="middle" x="600.761" y="-1287.03" font-family="Times,serif" font-size="14.00">sqlite3FindFunction</text>
<text text-anchor="middle" x="600.761" y="-1272.03" font-family="Times,serif" font-size="14.00">(callback.c)</text>
</g>
<!-- F20516a8&#45;&gt;F2051c68 -->
<g id="edge15" class="edge"><title>F20516a8&#45;&gt;F2051c68</title>
<path fill="none" stroke="black" d="M600.761,-1345.65C600.761,-1337.68 600.761,-1328.79 600.761,-1320.3"/>
<polygon fill="black" stroke="black" points="604.261,-1320.24 600.761,-1310.24 597.261,-1320.24 604.261,-1320.24"/>
</g>
<!-- F2051c68&#45;&gt;F2020ca8 -->
<g id="edge16" class="edge"><title>F2051c68&#45;&gt;F2020ca8</title>
<path fill="none" stroke="black" d="M549.982,-1261.22C520.119,-1248.86 482.144,-1233.14 450.552,-1220.07"/>
<polygon fill="black" stroke="black" points="451.547,-1216.69 440.969,-1216.1 448.87,-1223.16 451.547,-1216.69"/>
</g>
<!-- F2051c68&#45;&gt;F2021c08 -->
<g id="edge17" class="edge"><title>F2051c68&#45;&gt;F2021c08</title>
<path fill="none" stroke="black" d="M600.761,-1255.91C600.761,-1247.94 600.761,-1239.05 600.761,-1230.56"/>
<polygon fill="black" stroke="black" points="604.261,-1230.5 600.761,-1220.5 597.261,-1230.5 604.261,-1230.5"/>
</g>
<!-- F2056b88 -->
<g id="node29" class="node"><title>F2056b88</title>
<ellipse fill="gray" stroke="gray" cx="795.761" cy="-1193.49" rx="78.4777" ry="26.7407"/>
<text text-anchor="middle" x="795.761" y="-1197.29" font-family="Times,serif" font-size="14.00">sqlite3HashInsert</text>
<text text-anchor="middle" x="795.761" y="-1182.29" font-family="Times,serif" font-size="14.00">(hash.h)</text>
</g>
<!-- F2051c68&#45;&gt;F2056b88 -->
<g id="edge18" class="edge"><title>F2051c68&#45;&gt;F2056b88</title>
<path fill="none" stroke="black" d="M648.963,-1260.54C676.644,-1248.09 711.52,-1232.4 740.331,-1219.43"/>
<polygon fill="black" stroke="black" points="741.773,-1222.62 749.456,-1215.33 738.9,-1216.24 741.773,-1222.62"/>
</g>
<!-- F2056b88&#45;&gt;F20118e8 -->
<g id="edge25" class="edge"><title>F2056b88&#45;&gt;F20118e8</title>
<path fill="none" stroke="black" d="M795.761,-1166.17C795.761,-1158.2 795.761,-1149.31 795.761,-1140.82"/>
<polygon fill="black" stroke="black" points="799.261,-1140.76 795.761,-1130.76 792.261,-1140.76 799.261,-1140.76"/>
</g>
<!-- F2053438 -->
<g id="node30" class="node"><title>F2053438</title>
<ellipse fill="chartreuse" stroke="chartreuse" cx="1201.76" cy="-1552.45" rx="102.561" ry="26.7407"/>
<text text-anchor="middle" x="1201.76" y="-1556.25" font-family="Times,serif" font-size="14.00">sqlite3LockAndPrepare</text>
<text text-anchor="middle" x="1201.76" y="-1541.25" font-family="Times,serif" font-size="14.00">(prepare.c)</text>
</g>
<!-- F2053d78 -->
<g id="node31" class="node"><title>F2053d78</title>
<ellipse fill="chartreuse" stroke="chartreuse" cx="1271.76" cy="-1462.71" rx="66.4361" ry="26.7407"/>
<text text-anchor="middle" x="1271.76" y="-1466.51" font-family="Times,serif" font-size="14.00">sqlite3Prepare</text>
<text text-anchor="middle" x="1271.76" y="-1451.51" font-family="Times,serif" font-size="14.00">(prepare.c)</text>
</g>
<!-- F2053438&#45;&gt;F2053d78 -->
<g id="edge19" class="edge"><title>F2053438&#45;&gt;F2053d78</title>
<path fill="none" stroke="black" d="M1222.01,-1526.07C1229.39,-1516.82 1237.84,-1506.23 1245.66,-1496.43"/>
<polygon fill="black" stroke="black" points="1248.54,-1498.43 1252.04,-1488.43 1243.07,-1494.06 1248.54,-1498.43"/>
</g>
<!-- F2057da8 -->
<g id="node32" class="node"><title>F2057da8</title>
<ellipse fill="chartreuse" stroke="chartreuse" cx="1299.76" cy="-1372.97" rx="77.1494" ry="26.7407"/>
<text text-anchor="middle" x="1299.76" y="-1376.77" font-family="Times,serif" font-size="14.00">sqlite3RunParser</text>
<text text-anchor="middle" x="1299.76" y="-1361.77" font-family="Times,serif" font-size="14.00">(tokenize.c)</text>
</g>
<!-- F2053d78&#45;&gt;F2057da8 -->
<g id="edge20" class="edge"><title>F2053d78&#45;&gt;F2057da8</title>
<path fill="none" stroke="black" d="M1280.01,-1435.86C1282.64,-1427.63 1285.59,-1418.38 1288.39,-1409.59"/>
<polygon fill="black" stroke="black" points="1291.77,-1410.53 1291.47,-1399.94 1285.1,-1408.4 1291.77,-1410.53"/>
</g>
<!-- F2057da8&#45;&gt;F2018348 -->
<g id="edge26" class="edge"><title>F2057da8&#45;&gt;F2018348</title>
<path fill="none" stroke="black" d="M1299.76,-1345.65C1299.76,-1337.68 1299.76,-1328.79 1299.76,-1320.3"/>
<polygon fill="black" stroke="black" points="1303.26,-1320.24 1299.76,-1310.24 1296.26,-1320.24 1303.26,-1320.24"/>
</g>
<!-- F2054278 -->
<g id="node33" class="node"><title>F2054278</title>
<ellipse fill="chartreuse" stroke="chartreuse" cx="1246.76" cy="-296.09" rx="108.789" ry="26.7407"/>
<text text-anchor="middle" x="1246.76" y="-299.89" font-family="Times,serif" font-size="14.00">sqlite3LockAndPrepare&#39;2</text>
<text text-anchor="middle" x="1246.76" y="-284.89" font-family="Times,serif" font-size="14.00">(prepare.c)</text>
</g>
<!-- F2054808 -->
<g id="node34" class="node"><title>F2054808</title>
<ellipse fill="chartreuse" stroke="chartreuse" cx="1246.76" cy="-206.35" rx="72.6644" ry="26.7407"/>
<text text-anchor="middle" x="1246.76" y="-210.15" font-family="Times,serif" font-size="14.00">sqlite3Prepare&#39;2</text>
<text text-anchor="middle" x="1246.76" y="-195.15" font-family="Times,serif" font-size="14.00">(prepare.c)</text>
</g>
<!-- F2054278&#45;&gt;F2054808 -->
<g id="edge21" class="edge"><title>F2054278&#45;&gt;F2054808</title>
<path fill="none" stroke="black" d="M1246.76,-268.765C1246.76,-260.799 1246.76,-251.908 1246.76,-243.419"/>
<polygon fill="black" stroke="black" points="1250.26,-243.354 1246.76,-233.354 1243.26,-243.354 1250.26,-243.354"/>
</g>
<!-- F20c1ac8 -->
<g id="node35" class="node"><title>F20c1ac8</title>
<ellipse fill="chartreuse" stroke="chartreuse" cx="1246.76" cy="-116.61" rx="83.3772" ry="26.7407"/>
<text text-anchor="middle" x="1246.76" y="-120.41" font-family="Times,serif" font-size="14.00">sqlite3RunParser&#39;2</text>
<text text-anchor="middle" x="1246.76" y="-105.41" font-family="Times,serif" font-size="14.00">(tokenize.c)</text>
</g>
<!-- F2054808&#45;&gt;F20c1ac8 -->
<g id="edge22" class="edge"><title>F2054808&#45;&gt;F20c1ac8</title>
<path fill="none" stroke="black" d="M1246.76,-179.025C1246.76,-171.059 1246.76,-162.168 1246.76,-153.679"/>
<polygon fill="black" stroke="black" points="1250.26,-153.614 1246.76,-143.614 1243.26,-153.614 1250.26,-153.614"/>
</g>
<!-- F20c1ac8&#45;&gt;F201bf18 -->
<g id="edge44" class="edge"><title>F20c1ac8&#45;&gt;F201bf18</title>
<path fill="none" stroke="black" d="M1246.76,-89.2852C1246.76,-81.3185 1246.76,-72.4275 1246.76,-63.9391"/>
<polygon fill="black" stroke="black" points="1250.26,-63.874 1246.76,-53.874 1243.26,-63.8741 1250.26,-63.874"/>
</g>
<!-- F2055e48&#45;&gt;F20271e8 -->
<g id="edge24" class="edge"><title>F2055e48&#45;&gt;F20271e8</title>
<path fill="none" stroke="black" d="M1299.76,-986.686C1299.76,-978.72 1299.76,-969.829 1299.76,-961.34"/>
<polygon fill="black" stroke="black" points="1303.26,-961.275 1299.76,-951.275 1296.26,-961.275 1303.26,-961.275"/>
</g>
<!-- F20e7ce8 -->
<g id="node38" class="node"><title>F20e7ce8</title>
<ellipse fill="chartreuse" stroke="chartreuse" cx="1299.76" cy="-565.311" rx="66.4361" ry="26.7407"/>
<text text-anchor="middle" x="1299.76" y="-569.111" font-family="Times,serif" font-size="14.00">sqlite3InitOne</text>
<text text-anchor="middle" x="1299.76" y="-554.111" font-family="Times,serif" font-size="14.00">(prepare.c)</text>
</g>
<!-- F205a7f8&#45;&gt;F20e7ce8 -->
<g id="edge28" class="edge"><title>F205a7f8&#45;&gt;F20e7ce8</title>
<path fill="none" stroke="black" d="M1299.76,-627.726C1299.76,-619.759 1299.76,-610.868 1299.76,-602.38"/>
<polygon fill="black" stroke="black" points="1303.26,-602.315 1299.76,-592.315 1296.26,-602.315 1303.26,-602.315"/>
</g>
<!-- F20964c8 -->
<g id="node49" class="node"><title>F20964c8</title>
<ellipse fill="gray" stroke="gray" cx="1256.76" cy="-475.571" rx="59.2941" ry="26.7407"/>
<text text-anchor="middle" x="1256.76" y="-479.371" font-family="Times,serif" font-size="14.00">sqlite3_exec</text>
<text text-anchor="middle" x="1256.76" y="-464.371" font-family="Times,serif" font-size="14.00">(legacy.c)</text>
</g>
<!-- F20e7ce8&#45;&gt;F20964c8 -->
<g id="edge45" class="edge"><title>F20e7ce8&#45;&gt;F20964c8</title>
<path fill="none" stroke="black" d="M1287.09,-538.46C1282.9,-529.907 1278.17,-520.246 1273.71,-511.146"/>
<polygon fill="black" stroke="black" points="1276.73,-509.373 1269.19,-501.934 1270.45,-512.454 1276.73,-509.373"/>
</g>
<!-- F2097298 -->
<g id="node50" class="node"><title>F2097298</title>
<ellipse fill="gold" stroke="gold" cx="1343.76" cy="-385.831" rx="84.2917" ry="26.7407"/>
<text text-anchor="middle" x="1343.76" y="-389.631" font-family="Times,serif" font-size="14.00">sqlite3InitCallback</text>
<text text-anchor="middle" x="1343.76" y="-374.631" font-family="Times,serif" font-size="14.00">(vdbe.c)</text>
</g>
<!-- F20e7ce8&#45;&gt;F2097298 -->
<g id="edge46" class="edge"><title>F20e7ce8&#45;&gt;F2097298</title>
<path fill="none" stroke="black" d="M1311.65,-538.565C1316.31,-527.62 1321.35,-514.599 1324.76,-502.441 1332.1,-476.286 1336.95,-445.958 1339.91,-422.928"/>
<polygon fill="black" stroke="black" points="1343.4,-423.253 1341.14,-412.901 1336.45,-422.4 1343.4,-423.253"/>
</g>
<!-- F2066e08 -->
<g id="node39" class="node"><title>F2066e08</title>
<ellipse fill="gray" stroke="gray" cx="723.761" cy="-1462.71" rx="111.946" ry="26.7407"/>
<text text-anchor="middle" x="723.761" y="-1466.51" font-family="Times,serif" font-size="14.00">sqlite3_overload_function</text>
<text text-anchor="middle" x="723.761" y="-1451.51" font-family="Times,serif" font-size="14.00">(main.c)</text>
</g>
<!-- F2066e08&#45;&gt;F20516a8 -->
<g id="edge29" class="edge"><title>F2066e08&#45;&gt;F20516a8</title>
<path fill="none" stroke="black" d="M689.171,-1437.04C674.543,-1426.6 657.384,-1414.36 642.095,-1403.46"/>
<polygon fill="black" stroke="black" points="643.995,-1400.51 633.821,-1397.55 639.93,-1406.21 643.995,-1400.51"/>
</g>
<!-- F2067bb8 -->
<g id="node40" class="node"><title>F2067bb8</title>
<ellipse fill="gray" stroke="gray" cx="640.761" cy="-1642.19" rx="101.233" ry="26.7407"/>
<text text-anchor="middle" x="640.761" y="-1645.99" font-family="Times,serif" font-size="14.00">sqlite3_create_function</text>
<text text-anchor="middle" x="640.761" y="-1630.99" font-family="Times,serif" font-size="14.00">(main.c)</text>
</g>
<!-- F2067fd8 -->
<g id="node41" class="node"><title>F2067fd8</title>
<ellipse fill="gray" stroke="gray" cx="477.761" cy="-1462.71" rx="115.931" ry="26.7407"/>
<text text-anchor="middle" x="477.761" y="-1466.51" font-family="Times,serif" font-size="14.00">sqlite3_create_function_v2</text>
<text text-anchor="middle" x="477.761" y="-1451.51" font-family="Times,serif" font-size="14.00">(main.c)</text>
</g>
<!-- F2067bb8&#45;&gt;F2067fd8 -->
<g id="edge30" class="edge"><title>F2067bb8&#45;&gt;F2067fd8</title>
<path fill="none" stroke="black" d="M617.407,-1615.76C588.599,-1584.4 539.568,-1531.01 507.934,-1496.57"/>
<polygon fill="black" stroke="black" points="510.414,-1494.09 501.072,-1489.09 505.258,-1498.83 510.414,-1494.09"/>
</g>
<!-- F2067fd8&#45;&gt;F20516a8 -->
<g id="edge31" class="edge"><title>F2067fd8&#45;&gt;F20516a8</title>
<path fill="none" stroke="black" d="M512.351,-1437.04C526.979,-1426.6 544.138,-1414.36 559.427,-1403.46"/>
<polygon fill="black" stroke="black" points="561.592,-1406.21 567.701,-1397.55 557.527,-1400.51 561.592,-1406.21"/>
</g>
<!-- F2089f28 -->
<g id="node42" class="node"><title>F2089f28</title>
<ellipse fill="gray" stroke="gray" cx="820.761" cy="-1642.19" rx="60.623" ry="26.7407"/>
<text text-anchor="middle" x="820.761" y="-1645.99" font-family="Times,serif" font-size="14.00">sqlite3_open</text>
<text text-anchor="middle" x="820.761" y="-1630.99" font-family="Times,serif" font-size="14.00">(main.c)</text>
</g>
<!-- F208a328 -->
<g id="node43" class="node"><title>F208a328</title>
<ellipse fill="gray" stroke="gray" cx="820.761" cy="-1552.45" rx="65.1077" ry="26.7407"/>
<text text-anchor="middle" x="820.761" y="-1556.25" font-family="Times,serif" font-size="14.00">openDatabase</text>
<text text-anchor="middle" x="820.761" y="-1541.25" font-family="Times,serif" font-size="14.00">(main.c)</text>
</g>
<!-- F2089f28&#45;&gt;F208a328 -->
<g id="edge32" class="edge"><title>F2089f28&#45;&gt;F208a328</title>
<path fill="none" stroke="black" d="M820.761,-1614.87C820.761,-1606.9 820.761,-1598.01 820.761,-1589.52"/>
<polygon fill="black" stroke="black" points="824.261,-1589.46 820.761,-1579.46 817.261,-1589.46 824.261,-1589.46"/>
</g>
<!-- F208a328&#45;&gt;F2066e08 -->
<g id="edge33" class="edge"><title>F208a328&#45;&gt;F2066e08</title>
<path fill="none" stroke="black" d="M794.511,-1527.71C783.649,-1517.88 770.886,-1506.34 759.213,-1495.78"/>
<polygon fill="black" stroke="black" points="761.494,-1493.12 751.73,-1489.01 756.798,-1498.31 761.494,-1493.12"/>
</g>
<!-- F208a328&#45;&gt;F2067fd8 -->
<g id="edge34" class="edge"><title>F208a328&#45;&gt;F2067fd8</title>
<path fill="none" stroke="black" d="M766.412,-1537.55C711.902,-1523.61 627.148,-1501.93 563.555,-1485.66"/>
<polygon fill="black" stroke="black" points="564.094,-1482.18 553.538,-1483.1 562.359,-1488.96 564.094,-1482.18"/>
</g>
<!-- F208b168 -->
<g id="node44" class="node"><title>F208b168</title>
<ellipse fill="darkgoldenrod" stroke="darkgoldenrod" cx="931.761" cy="-1462.71" rx="78.4777" ry="26.7407"/>
<text text-anchor="middle" x="931.761" y="-1466.51" font-family="Times,serif" font-size="14.00">sqlite3BtreeOpen</text>
<text text-anchor="middle" x="931.761" y="-1451.51" font-family="Times,serif" font-size="14.00">(btree.h)</text>
</g>
<!-- F208a328&#45;&gt;F208b168 -->
<g id="edge35" class="edge"><title>F208a328&#45;&gt;F208b168</title>
<path fill="none" stroke="black" d="M849.925,-1528.4C863.241,-1517.87 879.191,-1505.27 893.458,-1493.99"/>
<polygon fill="black" stroke="black" points="895.957,-1496.47 901.631,-1487.53 891.616,-1490.98 895.957,-1496.47"/>
</g>
<!-- F20f1778 -->
<g id="node45" class="node"><title>F20f1778</title>
<ellipse fill="gray" stroke="gray" cx="1093.76" cy="-1462.71" rx="65.1077" ry="26.7407"/>
<text text-anchor="middle" x="1093.76" y="-1466.51" font-family="Times,serif" font-size="14.00">createModule</text>
<text text-anchor="middle" x="1093.76" y="-1451.51" font-family="Times,serif" font-size="14.00">(vtab.c)</text>
</g>
<!-- F208a328&#45;&gt;F20f1778 -->
<g id="edge36" class="edge"><title>F208a328&#45;&gt;F20f1778</title>
<path fill="none" stroke="black" d="M872.174,-1535.84C912.218,-1523.57 969.151,-1505.89 1018.76,-1489.58 1024.21,-1487.79 1029.87,-1485.9 1035.53,-1483.98"/>
<polygon fill="black" stroke="black" points="1036.67,-1487.29 1045.01,-1480.76 1034.42,-1480.67 1036.67,-1487.29"/>
</g>
<!-- F208d688 -->
<g id="node46" class="node"><title>F208d688</title>
<ellipse fill="gray" stroke="gray" cx="909.761" cy="-1372.97" rx="55.3091" ry="26.7407"/>
<text text-anchor="middle" x="909.761" y="-1376.77" font-family="Times,serif" font-size="14.00">unixOpen</text>
<text text-anchor="middle" x="909.761" y="-1361.77" font-family="Times,serif" font-size="14.00">(os_unix.c)</text>
</g>
<!-- F208b168&#45;&gt;F208d688 -->
<g id="edge37" class="edge"><title>F208b168&#45;&gt;F208d688</title>
<path fill="none" stroke="black" d="M925.279,-1435.86C923.239,-1427.72 920.947,-1418.58 918.764,-1409.88"/>
<polygon fill="black" stroke="black" points="922.099,-1408.79 916.272,-1399.94 915.31,-1410.49 922.099,-1408.79"/>
</g>
<!-- F20f1d98 -->
<g id="node51" class="node"><title>F20f1d98</title>
<ellipse fill="gray" stroke="gray" cx="1093.76" cy="-1372.97" rx="111.032" ry="26.7407"/>
<text text-anchor="middle" x="1093.76" y="-1376.77" font-family="Times,serif" font-size="14.00">sqlite3VtabCreateModule</text>
<text text-anchor="middle" x="1093.76" y="-1361.77" font-family="Times,serif" font-size="14.00">(vtab.c)</text>
</g>
<!-- F20f1778&#45;&gt;F20f1d98 -->
<g id="edge47" class="edge"><title>F20f1778&#45;&gt;F20f1d98</title>
<path fill="none" stroke="black" d="M1093.76,-1435.39C1093.76,-1427.42 1093.76,-1418.53 1093.76,-1410.04"/>
<polygon fill="black" stroke="black" points="1097.26,-1409.98 1093.76,-1399.98 1090.26,-1409.98 1097.26,-1409.98"/>
</g>
<!-- F208df18 -->
<g id="node47" class="node"><title>F208df18</title>
<ellipse fill="chartreuse" stroke="chartreuse" cx="1093.76" cy="-1642.19" rx="84.7059" ry="26.7407"/>
<text text-anchor="middle" x="1093.76" y="-1645.99" font-family="Times,serif" font-size="14.00">sqlite3_prepare_v2</text>
<text text-anchor="middle" x="1093.76" y="-1630.99" font-family="Times,serif" font-size="14.00">(prepare.c)</text>
</g>
<!-- F208df18&#45;&gt;F2053438 -->
<g id="edge38" class="edge"><title>F208df18&#45;&gt;F2053438</title>
<path fill="none" stroke="black" d="M1123.56,-1616.98C1135.86,-1606.99 1150.28,-1595.27 1163.37,-1584.64"/>
<polygon fill="black" stroke="black" points="1165.76,-1587.21 1171.31,-1578.19 1161.34,-1581.78 1165.76,-1587.21"/>
</g>
<!-- F208e418 -->
<g id="node48" class="node"><title>F208e418</title>
<ellipse fill="chartreuse" stroke="chartreuse" cx="1150.76" cy="-385.831" rx="91.4341" ry="26.7407"/>
<text text-anchor="middle" x="1150.76" y="-389.631" font-family="Times,serif" font-size="14.00">sqlite3_prepare_v2&#39;2</text>
<text text-anchor="middle" x="1150.76" y="-374.631" font-family="Times,serif" font-size="14.00">(prepare.c)</text>
</g>
<!-- F208e418&#45;&gt;F2054278 -->
<g id="edge39" class="edge"><title>F208e418&#45;&gt;F2054278</title>
<path fill="none" stroke="black" d="M1177.76,-360.157C1188.3,-350.52 1200.53,-339.344 1211.74,-329.1"/>
<polygon fill="black" stroke="black" points="1214.28,-331.518 1219.3,-322.188 1209.56,-326.351 1214.28,-331.518"/>
</g>
<!-- F20964c8&#45;&gt;F208e418 -->
<g id="edge41" class="edge"><title>F20964c8&#45;&gt;F208e418</title>
<path fill="none" stroke="black" d="M1229.19,-451.747C1216.68,-441.39 1201.69,-428.983 1188.18,-417.802"/>
<polygon fill="black" stroke="black" points="1190.36,-415.066 1180.43,-411.386 1185.9,-420.458 1190.36,-415.066"/>
</g>
<!-- F20964c8&#45;&gt;F2097298 -->
<g id="edge42" class="edge"><title>F20964c8&#45;&gt;F2097298</title>
<path fill="none" stroke="black" d="M1280.53,-450.595C1290.17,-440.878 1301.44,-429.509 1311.78,-419.083"/>
<polygon fill="black" stroke="black" points="1314.55,-421.26 1319.11,-411.695 1309.58,-416.331 1314.55,-421.26"/>
</g>
<!-- F2097298&#45;&gt;F2054278 -->
<g id="edge43" class="edge"><title>F2097298&#45;&gt;F2054278</title>
<path fill="none" stroke="black" d="M1316.48,-360.157C1305.83,-350.52 1293.47,-339.344 1282.15,-329.1"/>
<polygon fill="black" stroke="black" points="1284.27,-326.301 1274.51,-322.188 1279.58,-331.492 1284.27,-326.301"/>
</g>
<!-- F20fb668 -->
<g id="node52" class="node"><title>F20fb668</title>
<ellipse fill="gray" stroke="gray" cx="575.761" cy="-1911.41" rx="75.8212" ry="26.7407"/>
<text text-anchor="middle" x="575.761" y="-1915.21" font-family="Times,serif" font-size="14.00">sqlite3_initialize</text>
<text text-anchor="middle" x="575.761" y="-1900.21" font-family="Times,serif" font-size="14.00">(mutex.c)</text>
</g>
<!-- F20fb668&#45;&gt;F204c928 -->
<g id="edge48" class="edge"><title>F20fb668&#45;&gt;F204c928</title>
<path fill="none" stroke="black" d="M573.961,-1884.09C573.416,-1876.12 572.808,-1867.23 572.227,-1858.74"/>
<polygon fill="black" stroke="black" points="575.713,-1858.41 571.539,-1848.68 568.73,-1858.89 575.713,-1858.41"/>
</g>
<!-- F214a048 -->
<g id="node53" class="node"><title>F214a048</title>
<ellipse fill="lightgrey" stroke="black" cx="660.761" cy="-2001.15" rx="28.6953" ry="18"/>
<text text-anchor="middle" x="660.761" y="-1997.45" font-family="Times,serif" font-size="14.00">main</text>
</g>
<!-- F214a048&#45;&gt;F204ee48 -->
<g id="edge49" class="edge"><title>F214a048&#45;&gt;F204ee48</title>
<path fill="none" stroke="black" d="M648.274,-1984.6C642.163,-1977.98 634.29,-1970.77 625.761,-1966.28 623.522,-1965.1 503.972,-1941.05 426.227,-1925.49"/>
<polygon fill="black" stroke="black" points="426.515,-1921.98 416.022,-1923.45 425.141,-1928.84 426.515,-1921.98"/>
</g>
<!-- F214a048&#45;&gt;F20fb668 -->
<g id="edge50" class="edge"><title>F214a048&#45;&gt;F20fb668</title>
<path fill="none" stroke="black" d="M646.342,-1985.27C635.552,-1974.13 620.39,-1958.48 606.883,-1944.54"/>
<polygon fill="black" stroke="black" points="609.06,-1941.76 599.588,-1937.01 604.033,-1946.63 609.06,-1941.76"/>
</g>
<!-- F214b718 -->
<g id="node54" class="node"><title>F214b718</title>
<ellipse fill="bisque" stroke="bisque" cx="745.761" cy="-1911.41" rx="65.1077" ry="26.7407"/>
<text text-anchor="middle" x="745.761" y="-1915.21" font-family="Times,serif" font-size="14.00">process_input</text>
<text text-anchor="middle" x="745.761" y="-1900.21" font-family="Times,serif" font-size="14.00">(shell.c)</text>
</g>
<!-- F214a048&#45;&gt;F214b718 -->
<g id="edge51" class="edge"><title>F214a048&#45;&gt;F214b718</title>
<path fill="none" stroke="black" d="M675.18,-1985.27C686.05,-1974.05 701.357,-1958.25 714.938,-1944.23"/>
<polygon fill="black" stroke="black" points="717.823,-1946.28 722.267,-1936.66 712.795,-1941.41 717.823,-1946.28"/>
</g>
<!-- F214cb08 -->
<g id="node55" class="node"><title>F214cb08</title>
<ellipse fill="bisque" stroke="bisque" cx="897.761" cy="-1911.41" rx="69.0935" ry="26.7407"/>
<text text-anchor="middle" x="897.761" y="-1915.21" font-family="Times,serif" font-size="14.00">find_home_dir</text>
<text text-anchor="middle" x="897.761" y="-1900.21" font-family="Times,serif" font-size="14.00">(shell.c)</text>
</g>
<!-- F214a048&#45;&gt;F214cb08 -->
<g id="edge52" class="edge"><title>F214a048&#45;&gt;F214cb08</title>
<path fill="none" stroke="black" d="M684.79,-1991.26C720.646,-1977.98 789.247,-1952.59 838.923,-1934.2"/>
<polygon fill="black" stroke="black" points="840.428,-1937.37 848.59,-1930.62 837.997,-1930.81 840.428,-1937.37"/>
</g>
<!-- F214fc78 -->
<g id="node56" class="node"><title>F214fc78</title>
<ellipse fill="bisque" stroke="bisque" cx="751.761" cy="-1821.67" rx="88.2768" ry="26.7407"/>
<text text-anchor="middle" x="751.761" y="-1825.47" font-family="Times,serif" font-size="14.00">do_meta_command</text>
<text text-anchor="middle" x="751.761" y="-1810.47" font-family="Times,serif" font-size="14.00">(shell.c)</text>
</g>
<!-- F214b718&#45;&gt;F214fc78 -->
<g id="edge53" class="edge"><title>F214b718&#45;&gt;F214fc78</title>
<path fill="none" stroke="black" d="M747.561,-1884.09C748.106,-1876.12 748.714,-1867.23 749.294,-1858.74"/>
<polygon fill="black" stroke="black" points="752.792,-1858.89 749.983,-1848.68 745.808,-1858.41 752.792,-1858.89"/>
</g>
<!-- F2150768 -->
<g id="node57" class="node"><title>F2150768</title>
<ellipse fill="bisque" stroke="bisque" cx="980.761" cy="-1821.67" rx="70.922" ry="26.7407"/>
<text text-anchor="middle" x="980.761" y="-1825.47" font-family="Times,serif" font-size="14.00">runOneSqlLine</text>
<text text-anchor="middle" x="980.761" y="-1810.47" font-family="Times,serif" font-size="14.00">(shell.c)</text>
</g>
<!-- F214b718&#45;&gt;F2150768 -->
<g id="edge54" class="edge"><title>F214b718&#45;&gt;F2150768</title>
<path fill="none" stroke="black" d="M793.034,-1892.76C830.18,-1878.89 882.118,-1859.5 921.949,-1844.63"/>
<polygon fill="black" stroke="black" points="923.396,-1847.83 931.54,-1841.05 920.947,-1841.27 923.396,-1847.83"/>
</g>
<!-- F2152458 -->
<g id="node59" class="node"><title>F2152458</title>
<ellipse fill="bisque" stroke="bisque" cx="751.761" cy="-1731.93" rx="44.5955" ry="26.7407"/>
<text text-anchor="middle" x="751.761" y="-1735.73" font-family="Times,serif" font-size="14.00">open_db</text>
<text text-anchor="middle" x="751.761" y="-1720.73" font-family="Times,serif" font-size="14.00">(shell.c)</text>
</g>
<!-- F214fc78&#45;&gt;F2152458 -->
<g id="edge55" class="edge"><title>F214fc78&#45;&gt;F2152458</title>
<path fill="none" stroke="black" d="M751.761,-1794.35C751.761,-1786.38 751.761,-1777.49 751.761,-1769"/>
<polygon fill="black" stroke="black" points="755.261,-1768.94 751.761,-1758.94 748.261,-1768.94 755.261,-1768.94"/>
</g>
<!-- F2153278 -->
<g id="node60" class="node"><title>F2153278</title>
<ellipse fill="bisque" stroke="bisque" cx="1093.76" cy="-1731.93" rx="52.1524" ry="26.7407"/>
<text text-anchor="middle" x="1093.76" y="-1735.73" font-family="Times,serif" font-size="14.00">shell_exec</text>
<text text-anchor="middle" x="1093.76" y="-1720.73" font-family="Times,serif" font-size="14.00">(shell.c)</text>
</g>
<!-- F2150768&#45;&gt;F2153278 -->
<g id="edge56" class="edge"><title>F2150768&#45;&gt;F2153278</title>
<path fill="none" stroke="black" d="M1011.04,-1797.16C1025.38,-1786.02 1042.62,-1772.64 1057.64,-1760.98"/>
<polygon fill="black" stroke="black" points="1059.97,-1763.6 1065.72,-1754.7 1055.68,-1758.07 1059.97,-1763.6"/>
</g>
<!-- F214d058 -->
<g id="node58" class="node"><title>F214d058</title>
<ellipse fill="bisque" stroke="bisque" cx="1285.76" cy="-1642.19" rx="89.191" ry="26.7407"/>
<text text-anchor="middle" x="1285.76" y="-1645.99" font-family="Times,serif" font-size="14.00">exec_prepared_stmt</text>
<text text-anchor="middle" x="1285.76" y="-1630.99" font-family="Times,serif" font-size="14.00">(shell.c)</text>
</g>
<!-- F2152458&#45;&gt;F2067bb8 -->
<g id="edge57" class="edge"><title>F2152458&#45;&gt;F2067bb8</title>
<path fill="none" stroke="black" d="M725.455,-1710.14C711.932,-1699.45 695.176,-1686.2 680.147,-1674.32"/>
<polygon fill="black" stroke="black" points="682.022,-1671.35 672.006,-1667.89 677.681,-1676.84 682.022,-1671.35"/>
</g>
<!-- F2152458&#45;&gt;F2089f28 -->
<g id="edge58" class="edge"><title>F2152458&#45;&gt;F2089f28</title>
<path fill="none" stroke="black" d="M770.252,-1707.42C777.874,-1697.73 786.837,-1686.33 795.079,-1675.85"/>
<polygon fill="black" stroke="black" points="798.066,-1677.71 801.496,-1667.69 792.563,-1673.39 798.066,-1677.71"/>
</g>
<!-- F2153278&#45;&gt;F208df18 -->
<g id="edge59" class="edge"><title>F2153278&#45;&gt;F208df18</title>
<path fill="none" stroke="black" d="M1093.76,-1704.61C1093.76,-1696.64 1093.76,-1687.75 1093.76,-1679.26"/>
<polygon fill="black" stroke="black" points="1097.26,-1679.2 1093.76,-1669.2 1090.26,-1679.2 1097.26,-1679.2"/>
</g>
<!-- F2153278&#45;&gt;F214d058 -->
<g id="edge60" class="edge"><title>F2153278&#45;&gt;F214d058</title>
<path fill="none" stroke="black" d="M1132.15,-1713.39C1159.72,-1700.79 1197.35,-1683.59 1228.47,-1669.37"/>
<polygon fill="black" stroke="black" points="1230.26,-1672.4 1237.9,-1665.06 1227.35,-1666.04 1230.26,-1672.4"/>
</g>
</g>
</svg>
