<?xml version="1.0" encoding="UTF-8" standalone="no"?>
<!DOCTYPE svg PUBLIC "-//W3C//DTD SVG 1.1//EN"
 "http://www.w3.org/Graphics/SVG/1.1/DTD/svg11.dtd">
<!-- Generated by graphviz version 2.38.0 (20140413.2041)
 -->
<!-- Title: callgraph Pages: 1 -->
<svg width="1711pt" height="1693pt"
 viewBox="0.00 0.00 1710.53 1693.06" xmlns="http://www.w3.org/2000/svg" xmlns:xlink="http://www.w3.org/1999/xlink">
<g id="graph0" class="graph" transform="scale(1 1) rotate(0) translate(4 1689.06)">
<title>callgraph</title>
<polygon fill="white" stroke="none" points="-4,4 -4,-1689.06 1706.53,-1689.06 1706.53,4 -4,4"/>
<g id="clust1" class="cluster"><title>cluster_legend</title>
<polygon fill="none" stroke="black" points="8,-1607.32 8,-1677.06 546,-1677.06 546,-1607.32 8,-1607.32"/>
</g>
<!-- Frontend -->
<g id="node1" class="node"><title>Frontend</title>
<ellipse fill="chartreuse" stroke="chartreuse" cx="496" cy="-1642.19" rx="42.4939" ry="18"/>
<text text-anchor="middle" x="496" y="-1638.49" font-family="Times,serif" font-size="14.00">Frontend</text>
</g>
<!-- Pager
(Backend) -->
<g id="node2" class="node"><title>Pager
(Backend)</title>
<ellipse fill="darkorange" stroke="darkorange" cx="384" cy="-1642.19" rx="51.7379" ry="26.7407"/>
<text text-anchor="middle" x="384" y="-1645.99" font-family="Times,serif" font-size="14.00">Pager</text>
<text text-anchor="middle" x="384" y="-1630.99" font-family="Times,serif" font-size="14.00">(Backend)</text>
</g>
<!-- Tree
(Backend) -->
<g id="node3" class="node"><title>Tree
(Backend)</title>
<ellipse fill="darkgoldenrod" stroke="darkgoldenrod" cx="263" cy="-1642.19" rx="51.7379" ry="26.7407"/>
<text text-anchor="middle" x="263" y="-1645.99" font-family="Times,serif" font-size="14.00">Tree</text>
<text text-anchor="middle" x="263" y="-1630.99" font-family="Times,serif" font-size="14.00">(Backend)</text>
</g>
<!-- Unknown -->
<g id="node4" class="node"><title>Unknown</title>
<ellipse fill="gray" stroke="gray" cx="148" cy="-1642.19" rx="45.4919" ry="18"/>
<text text-anchor="middle" x="148" y="-1638.49" font-family="Times,serif" font-size="14.00">Unknown</text>
</g>
<!-- VDBE -->
<g id="node5" class="node"><title>VDBE</title>
<ellipse fill="gold" stroke="gold" cx="50" cy="-1642.19" rx="34.394" ry="18"/>
<text text-anchor="middle" x="50" y="-1638.49" font-family="Times,serif" font-size="14.00">VDBE</text>
</g>
<!-- F131d678 -->
<g id="node6" class="node"><title>F131d678</title>
<ellipse fill="gray" stroke="gray" cx="237" cy="-1372.97" rx="108.375" ry="26.7407"/>
<text text-anchor="middle" x="237" y="-1376.77" font-family="Times,serif" font-size="14.00">sqlite3InsertBuiltinFuncs</text>
<text text-anchor="middle" x="237" y="-1361.77" font-family="Times,serif" font-size="14.00">(callback.c)</text>
</g>
<!-- F1320dc8 -->
<g id="node7" class="node"><title>F1320dc8</title>
<ellipse fill="gray" stroke="gray" cx="672" cy="-1193.49" rx="65.1077" ry="26.7407"/>
<text text-anchor="middle" x="672" y="-1197.29" font-family="Times,serif" font-size="14.00">openDatabase</text>
<text text-anchor="middle" x="672" y="-1182.29" font-family="Times,serif" font-size="14.00">(main.c)</text>
</g>
<!-- F1323d78 -->
<g id="node8" class="node"><title>F1323d78</title>
<ellipse fill="gray" stroke="gray" cx="606" cy="-1103.75" rx="111.946" ry="26.7407"/>
<text text-anchor="middle" x="606" y="-1107.55" font-family="Times,serif" font-size="14.00">sqlite3_overload_function</text>
<text text-anchor="middle" x="606" y="-1092.55" font-family="Times,serif" font-size="14.00">(main.c)</text>
</g>
<!-- F1320dc8&#45;&gt;F1323d78 -->
<g id="edge1" class="edge"><title>F1320dc8&#45;&gt;F1323d78</title>
<path fill="none" stroke="black" d="M653.264,-1167.58C646.484,-1158.57 638.71,-1148.24 631.451,-1138.59"/>
<polygon fill="black" stroke="black" points="634.051,-1136.22 625.242,-1130.33 628.457,-1140.43 634.051,-1136.22"/>
</g>
<!-- F1325858 -->
<g id="node9" class="node"><title>F1325858</title>
<ellipse fill="gray" stroke="gray" cx="852" cy="-1103.75" rx="115.931" ry="26.7407"/>
<text text-anchor="middle" x="852" y="-1107.55" font-family="Times,serif" font-size="14.00">sqlite3_create_function_v2</text>
<text text-anchor="middle" x="852" y="-1092.55" font-family="Times,serif" font-size="14.00">(main.c)</text>
</g>
<!-- F1320dc8&#45;&gt;F1325858 -->
<g id="edge2" class="edge"><title>F1320dc8&#45;&gt;F1325858</title>
<path fill="none" stroke="black" d="M713.296,-1172.36C737.436,-1160.6 768.265,-1145.57 794.726,-1132.67"/>
<polygon fill="black" stroke="black" points="796.43,-1135.73 803.885,-1128.2 793.363,-1129.44 796.43,-1135.73"/>
</g>
<!-- F1326548 -->
<g id="node10" class="node"><title>F1326548</title>
<ellipse fill="gray" stroke="gray" cx="682" cy="-1014.01" rx="81.135" ry="26.7407"/>
<text text-anchor="middle" x="682" y="-1017.81" font-family="Times,serif" font-size="14.00">sqlite3CreateFunc</text>
<text text-anchor="middle" x="682" y="-1002.81" font-family="Times,serif" font-size="14.00">(main.c)</text>
</g>
<!-- F1323d78&#45;&gt;F1326548 -->
<g id="edge3" class="edge"><title>F1323d78&#45;&gt;F1326548</title>
<path fill="none" stroke="black" d="M627.982,-1077.37C636.008,-1068.11 645.2,-1057.5 653.698,-1047.69"/>
<polygon fill="black" stroke="black" points="656.428,-1049.88 660.33,-1040.03 651.137,-1045.3 656.428,-1049.88"/>
</g>
<!-- F1325858&#45;&gt;F1326548 -->
<g id="edge4" class="edge"><title>F1325858&#45;&gt;F1326548</title>
<path fill="none" stroke="black" d="M805.996,-1079.01C783.599,-1067.45 756.59,-1053.51 733.506,-1041.59"/>
<polygon fill="black" stroke="black" points="735.032,-1038.44 724.54,-1036.97 731.821,-1044.66 735.032,-1038.44"/>
</g>
<!-- F1326ae8 -->
<g id="node11" class="node"><title>F1326ae8</title>
<ellipse fill="gray" stroke="gray" cx="682" cy="-924.271" rx="88.2768" ry="26.7407"/>
<text text-anchor="middle" x="682" y="-928.071" font-family="Times,serif" font-size="14.00">sqlite3FindFunction</text>
<text text-anchor="middle" x="682" y="-913.071" font-family="Times,serif" font-size="14.00">(callback.c)</text>
</g>
<!-- F1326548&#45;&gt;F1326ae8 -->
<g id="edge5" class="edge"><title>F1326548&#45;&gt;F1326ae8</title>
<path fill="none" stroke="black" d="M682,-986.686C682,-978.72 682,-969.829 682,-961.34"/>
<polygon fill="black" stroke="black" points="685.5,-961.275 682,-951.275 678.5,-961.275 685.5,-961.275"/>
</g>
<!-- F13a7dc8 -->
<g id="node12" class="node"><title>F13a7dc8</title>
<ellipse fill="gray" stroke="gray" cx="587" cy="-834.531" rx="94.5053" ry="26.7407"/>
<text text-anchor="middle" x="587" y="-838.331" font-family="Times,serif" font-size="14.00">sqlite3DbMallocZero</text>
<text text-anchor="middle" x="587" y="-823.331" font-family="Times,serif" font-size="14.00">(malloc.c)</text>
</g>
<!-- F1326ae8&#45;&gt;F13a7dc8 -->
<g id="edge6" class="edge"><title>F1326ae8&#45;&gt;F13a7dc8</title>
<path fill="none" stroke="black" d="M655.284,-898.597C644.761,-888.878 632.543,-877.593 621.374,-867.279"/>
<polygon fill="black" stroke="black" points="623.565,-864.538 613.844,-860.324 618.816,-869.68 623.565,-864.538"/>
</g>
<!-- F13d8068 -->
<g id="node13" class="node"><title>F13d8068</title>
<ellipse fill="gray" stroke="gray" cx="778" cy="-834.531" rx="78.4777" ry="26.7407"/>
<text text-anchor="middle" x="778" y="-838.331" font-family="Times,serif" font-size="14.00">sqlite3HashInsert</text>
<text text-anchor="middle" x="778" y="-823.331" font-family="Times,serif" font-size="14.00">(hash.h)</text>
</g>
<!-- F1326ae8&#45;&gt;F13d8068 -->
<g id="edge7" class="edge"><title>F1326ae8&#45;&gt;F13d8068</title>
<path fill="none" stroke="black" d="M708.997,-898.597C719.721,-888.796 732.187,-877.402 743.55,-867.017"/>
<polygon fill="black" stroke="black" points="746.186,-869.35 751.206,-860.02 741.463,-864.183 746.186,-869.35"/>
</g>
<!-- F1328958 -->
<g id="node14" class="node"><title>F1328958</title>
<ellipse fill="gray" stroke="gray" cx="852" cy="-1283.23" rx="101.233" ry="26.7407"/>
<text text-anchor="middle" x="852" y="-1287.03" font-family="Times,serif" font-size="14.00">sqlite3_create_function</text>
<text text-anchor="middle" x="852" y="-1272.03" font-family="Times,serif" font-size="14.00">(main.c)</text>
</g>
<!-- F1328958&#45;&gt;F1325858 -->
<g id="edge8" class="edge"><title>F1328958&#45;&gt;F1325858</title>
<path fill="none" stroke="black" d="M852,-1256.04C852,-1225.55 852,-1175 852,-1140.8"/>
<polygon fill="black" stroke="black" points="855.5,-1140.76 852,-1130.76 848.5,-1140.76 855.5,-1140.76"/>
</g>
<!-- F1328ee8 -->
<g id="node15" class="node"><title>F1328ee8</title>
<ellipse fill="chartreuse" stroke="chartreuse" cx="1056" cy="-1283.23" rx="84.7059" ry="26.7407"/>
<text text-anchor="middle" x="1056" y="-1287.03" font-family="Times,serif" font-size="14.00">sqlite3_prepare_v2</text>
<text text-anchor="middle" x="1056" y="-1272.03" font-family="Times,serif" font-size="14.00">(prepare.c)</text>
</g>
<!-- F1329318 -->
<g id="node16" class="node"><title>F1329318</title>
<ellipse fill="chartreuse" stroke="chartreuse" cx="1400" cy="-1193.49" rx="102.561" ry="26.7407"/>
<text text-anchor="middle" x="1400" y="-1197.29" font-family="Times,serif" font-size="14.00">sqlite3LockAndPrepare</text>
<text text-anchor="middle" x="1400" y="-1182.29" font-family="Times,serif" font-size="14.00">(prepare.c)</text>
</g>
<!-- F1328ee8&#45;&gt;F1329318 -->
<g id="edge9" class="edge"><title>F1328ee8&#45;&gt;F1329318</title>
<path fill="none" stroke="black" d="M1118.13,-1264.89C1128.75,-1261.99 1139.68,-1259.06 1150,-1256.36 1205.34,-1241.9 1267.81,-1226.44 1316.46,-1214.59"/>
<polygon fill="black" stroke="black" points="1317.42,-1217.96 1326.31,-1212.2 1315.76,-1211.16 1317.42,-1217.96"/>
</g>
<!-- F142bef8 -->
<g id="node17" class="node"><title>F142bef8</title>
<ellipse fill="chartreuse" stroke="chartreuse" cx="1400" cy="-1103.75" rx="66.4361" ry="26.7407"/>
<text text-anchor="middle" x="1400" y="-1107.55" font-family="Times,serif" font-size="14.00">sqlite3Prepare</text>
<text text-anchor="middle" x="1400" y="-1092.55" font-family="Times,serif" font-size="14.00">(prepare.c)</text>
</g>
<!-- F1329318&#45;&gt;F142bef8 -->
<g id="edge10" class="edge"><title>F1329318&#45;&gt;F142bef8</title>
<path fill="none" stroke="black" d="M1400,-1166.17C1400,-1158.2 1400,-1149.31 1400,-1140.82"/>
<polygon fill="black" stroke="black" points="1403.5,-1140.76 1400,-1130.76 1396.5,-1140.76 1403.5,-1140.76"/>
</g>
<!-- F1370d38 -->
<g id="node35" class="node"><title>F1370d38</title>
<ellipse fill="chartreuse" stroke="chartreuse" cx="1400" cy="-1014.01" rx="77.1494" ry="26.7407"/>
<text text-anchor="middle" x="1400" y="-1017.81" font-family="Times,serif" font-size="14.00">sqlite3RunParser</text>
<text text-anchor="middle" x="1400" y="-1002.81" font-family="Times,serif" font-size="14.00">(tokenize.c)</text>
</g>
<!-- F142bef8&#45;&gt;F1370d38 -->
<g id="edge42" class="edge"><title>F142bef8&#45;&gt;F1370d38</title>
<path fill="none" stroke="black" d="M1400,-1076.43C1400,-1068.46 1400,-1059.57 1400,-1051.08"/>
<polygon fill="black" stroke="black" points="1403.5,-1051.02 1400,-1041.02 1396.5,-1051.02 1403.5,-1051.02"/>
</g>
<!-- F1329848 -->
<g id="node18" class="node"><title>F1329848</title>
<ellipse fill="chartreuse" stroke="chartreuse" cx="1057" cy="-475.571" rx="91.4341" ry="26.7407"/>
<text text-anchor="middle" x="1057" y="-479.371" font-family="Times,serif" font-size="14.00">sqlite3_prepare_v2&#39;2</text>
<text text-anchor="middle" x="1057" y="-464.371" font-family="Times,serif" font-size="14.00">(prepare.c)</text>
</g>
<!-- F1329d18 -->
<g id="node19" class="node"><title>F1329d18</title>
<ellipse fill="chartreuse" stroke="chartreuse" cx="1250" cy="-385.831" rx="108.789" ry="26.7407"/>
<text text-anchor="middle" x="1250" y="-389.631" font-family="Times,serif" font-size="14.00">sqlite3LockAndPrepare&#39;2</text>
<text text-anchor="middle" x="1250" y="-374.631" font-family="Times,serif" font-size="14.00">(prepare.c)</text>
</g>
<!-- F1329848&#45;&gt;F1329d18 -->
<g id="edge11" class="edge"><title>F1329848&#45;&gt;F1329d18</title>
<path fill="none" stroke="black" d="M1105.2,-452.656C1130.97,-440.942 1162.93,-426.414 1190.26,-413.988"/>
<polygon fill="black" stroke="black" points="1192.06,-417.014 1199.72,-409.689 1189.17,-410.641 1192.06,-417.014"/>
</g>
<!-- F142ce38 -->
<g id="node20" class="node"><title>F142ce38</title>
<ellipse fill="chartreuse" stroke="chartreuse" cx="1275" cy="-296.09" rx="72.6644" ry="26.7407"/>
<text text-anchor="middle" x="1275" y="-299.89" font-family="Times,serif" font-size="14.00">sqlite3Prepare&#39;2</text>
<text text-anchor="middle" x="1275" y="-284.89" font-family="Times,serif" font-size="14.00">(prepare.c)</text>
</g>
<!-- F1329d18&#45;&gt;F142ce38 -->
<g id="edge12" class="edge"><title>F1329d18&#45;&gt;F142ce38</title>
<path fill="none" stroke="black" d="M1257.37,-358.98C1259.71,-350.753 1262.35,-341.503 1264.85,-332.711"/>
<polygon fill="black" stroke="black" points="1268.23,-333.636 1267.6,-323.059 1261.49,-331.717 1268.23,-333.636"/>
</g>
<!-- F135c148 -->
<g id="node31" class="node"><title>F135c148</title>
<ellipse fill="chartreuse" stroke="chartreuse" cx="1400" cy="-206.35" rx="83.3772" ry="26.7407"/>
<text text-anchor="middle" x="1400" y="-210.15" font-family="Times,serif" font-size="14.00">sqlite3RunParser&#39;2</text>
<text text-anchor="middle" x="1400" y="-195.15" font-family="Times,serif" font-size="14.00">(tokenize.c)</text>
</g>
<!-- F142ce38&#45;&gt;F135c148 -->
<g id="edge43" class="edge"><title>F142ce38&#45;&gt;F135c148</title>
<path fill="none" stroke="black" d="M1307.84,-272.038C1323.12,-261.315 1341.47,-248.432 1357.76,-236.996"/>
<polygon fill="black" stroke="black" points="1359.9,-239.776 1366.07,-231.166 1355.87,-234.047 1359.9,-239.776"/>
</g>
<!-- F132b4c8 -->
<g id="node21" class="node"><title>F132b4c8</title>
<ellipse fill="darkgoldenrod" stroke="darkgoldenrod" cx="1600" cy="-1014.01" rx="102.561" ry="26.7407"/>
<text text-anchor="middle" x="1600" y="-1017.81" font-family="Times,serif" font-size="14.00">sqlite3BtreeBeginTrans</text>
<text text-anchor="middle" x="1600" y="-1002.81" font-family="Times,serif" font-size="14.00">(btree.h)</text>
</g>
<!-- F132bab8 -->
<g id="node22" class="node"><title>F132bab8</title>
<ellipse fill="darkgoldenrod" stroke="darkgoldenrod" cx="1612" cy="-924.271" rx="62.8651" ry="26.7407"/>
<text text-anchor="middle" x="1612" y="-928.071" font-family="Times,serif" font-size="14.00">newDatabase</text>
<text text-anchor="middle" x="1612" y="-913.071" font-family="Times,serif" font-size="14.00">(btree.c)</text>
</g>
<!-- F132b4c8&#45;&gt;F132bab8 -->
<g id="edge13" class="edge"><title>F132b4c8&#45;&gt;F132bab8</title>
<path fill="none" stroke="black" d="M1603.6,-986.686C1604.69,-978.72 1605.91,-969.829 1607.07,-961.34"/>
<polygon fill="black" stroke="black" points="1610.56,-961.657 1608.44,-951.275 1603.62,-960.709 1610.56,-961.657"/>
</g>
<!-- F1366628 -->
<g id="node23" class="node"><title>F1366628</title>
<ellipse fill="darkorange" stroke="darkorange" cx="1621" cy="-834.531" rx="81.135" ry="26.7407"/>
<text text-anchor="middle" x="1621" y="-838.331" font-family="Times,serif" font-size="14.00">sqlite3PagerWrite</text>
<text text-anchor="middle" x="1621" y="-823.331" font-family="Times,serif" font-size="14.00">(pager.h)</text>
</g>
<!-- F132bab8&#45;&gt;F1366628 -->
<g id="edge14" class="edge"><title>F132bab8&#45;&gt;F1366628</title>
<path fill="none" stroke="black" d="M1614.65,-897.421C1615.48,-889.371 1616.4,-880.341 1617.29,-871.72"/>
<polygon fill="black" stroke="black" points="1620.8,-871.805 1618.34,-861.5 1613.83,-871.091 1620.8,-871.805"/>
</g>
<!-- F13cf898 -->
<g id="node33" class="node"><title>F13cf898</title>
<ellipse fill="darkorange" stroke="darkorange" cx="1621" cy="-744.791" rx="57.0522" ry="26.7407"/>
<text text-anchor="middle" x="1621" y="-748.591" font-family="Times,serif" font-size="14.00">pager_write</text>
<text text-anchor="middle" x="1621" y="-733.591" font-family="Times,serif" font-size="14.00">(pager.c)</text>
</g>
<!-- F1366628&#45;&gt;F13cf898 -->
<g id="edge22" class="edge"><title>F1366628&#45;&gt;F13cf898</title>
<path fill="none" stroke="black" d="M1621,-807.206C1621,-799.239 1621,-790.348 1621,-781.86"/>
<polygon fill="black" stroke="black" points="1624.5,-781.795 1621,-771.795 1617.5,-781.795 1624.5,-781.795"/>
</g>
<!-- F1330228 -->
<g id="node24" class="node"><title>F1330228</title>
<ellipse fill="gray" stroke="gray" cx="1094" cy="-565.311" rx="59.2941" ry="26.7407"/>
<text text-anchor="middle" x="1094" y="-569.111" font-family="Times,serif" font-size="14.00">sqlite3_exec</text>
<text text-anchor="middle" x="1094" y="-554.111" font-family="Times,serif" font-size="14.00">(legacy.c)</text>
</g>
<!-- F1330228&#45;&gt;F1328ee8 -->
<g id="edge15" class="edge"><title>F1330228&#45;&gt;F1328ee8</title>
<path fill="none" stroke="black" d="M1084.9,-592.103C1073.66,-626.317 1056,-688.804 1056,-743.791 1056,-1104.75 1056,-1104.75 1056,-1104.75 1056,-1153.48 1056,-1209.73 1056,-1245.62"/>
<polygon fill="black" stroke="black" points="1052.5,-1246.07 1056,-1256.07 1059.5,-1246.07 1052.5,-1246.07"/>
</g>
<!-- F1330228&#45;&gt;F1329848 -->
<g id="edge16" class="edge"><title>F1330228&#45;&gt;F1329848</title>
<path fill="none" stroke="black" d="M1083.1,-538.46C1079.59,-530.145 1075.64,-520.784 1071.9,-511.908"/>
<polygon fill="black" stroke="black" points="1075.06,-510.394 1067.95,-502.539 1068.61,-513.114 1075.06,-510.394"/>
</g>
<!-- F1332c18 -->
<g id="node25" class="node"><title>F1332c18</title>
<ellipse fill="gold" stroke="gold" cx="1250" cy="-475.571" rx="84.2917" ry="26.7407"/>
<text text-anchor="middle" x="1250" y="-479.371" font-family="Times,serif" font-size="14.00">sqlite3InitCallback</text>
<text text-anchor="middle" x="1250" y="-464.371" font-family="Times,serif" font-size="14.00">(vdbe.c)</text>
</g>
<!-- F1330228&#45;&gt;F1332c18 -->
<g id="edge17" class="edge"><title>F1330228&#45;&gt;F1332c18</title>
<path fill="none" stroke="black" d="M1130.18,-543.961C1151.16,-532.162 1177.87,-517.142 1200.74,-504.277"/>
<polygon fill="black" stroke="black" points="1202.62,-507.233 1209.62,-499.28 1199.19,-501.132 1202.62,-507.233"/>
</g>
<!-- F1332c18&#45;&gt;F1329d18 -->
<g id="edge19" class="edge"><title>F1332c18&#45;&gt;F1329d18</title>
<path fill="none" stroke="black" d="M1250,-448.246C1250,-440.279 1250,-431.388 1250,-422.9"/>
<polygon fill="black" stroke="black" points="1253.5,-422.834 1250,-412.835 1246.5,-422.835 1253.5,-422.834"/>
</g>
<!-- F1331348 -->
<g id="node26" class="node"><title>F1331348</title>
<ellipse fill="gold" stroke="gold" cx="1222" cy="-1193.49" rx="57.0522" ry="26.7407"/>
<text text-anchor="middle" x="1222" y="-1197.29" font-family="Times,serif" font-size="14.00">sqlite3_step</text>
<text text-anchor="middle" x="1222" y="-1182.29" font-family="Times,serif" font-size="14.00">(vdbeapi.c)</text>
</g>
<!-- F13e0028 -->
<g id="node27" class="node"><title>F13e0028</title>
<ellipse fill="gold" stroke="gold" cx="1222" cy="-1103.75" rx="77.1494" ry="26.7407"/>
<text text-anchor="middle" x="1222" y="-1107.55" font-family="Times,serif" font-size="14.00">sqlite3VdbeExec</text>
<text text-anchor="middle" x="1222" y="-1092.55" font-family="Times,serif" font-size="14.00">(vdbeInt.h)</text>
</g>
<!-- F1331348&#45;&gt;F13e0028 -->
<g id="edge18" class="edge"><title>F1331348&#45;&gt;F13e0028</title>
<path fill="none" stroke="black" d="M1222,-1166.17C1222,-1158.2 1222,-1149.31 1222,-1140.82"/>
<polygon fill="black" stroke="black" points="1225.5,-1140.76 1222,-1130.76 1218.5,-1140.76 1225.5,-1140.76"/>
</g>
<!-- F13e0028&#45;&gt;F132b4c8 -->
<g id="edge34" class="edge"><title>F13e0028&#45;&gt;F132b4c8</title>
<path fill="none" stroke="black" d="M1282.94,-1087.17C1296.75,-1083.71 1311.37,-1080.12 1325,-1076.88 1396.34,-1059.95 1414.47,-1056.99 1486,-1040.88 1495.18,-1038.81 1504.78,-1036.64 1514.34,-1034.48"/>
<polygon fill="black" stroke="black" points="1515.3,-1037.85 1524.28,-1032.23 1513.75,-1031.03 1515.3,-1037.85"/>
</g>
<!-- F13e0028&#45;&gt;F1330228 -->
<g id="edge35" class="edge"><title>F13e0028&#45;&gt;F1330228</title>
<path fill="none" stroke="black" d="M1189.7,-1079.07C1151.78,-1048.27 1094,-990.614 1094,-925.271 1094,-925.271 1094,-925.271 1094,-743.791 1094,-695.064 1094,-638.812 1094,-602.925"/>
<polygon fill="black" stroke="black" points="1097.5,-602.473 1094,-592.473 1090.5,-602.473 1097.5,-602.473"/>
</g>
<!-- F1331e28 -->
<g id="node28" class="node"><title>F1331e28</title>
<ellipse fill="gray" stroke="gray" cx="349" cy="-1283.23" rx="65.5227" ry="26.7407"/>
<text text-anchor="middle" x="349" y="-1287.03" font-family="Times,serif" font-size="14.00">sqlite3DbFree</text>
<text text-anchor="middle" x="349" y="-1272.03" font-family="Times,serif" font-size="14.00">(malloc.c)</text>
</g>
<!-- F1337338 -->
<g id="node29" class="node"><title>F1337338</title>
<ellipse fill="chartreuse" stroke="chartreuse" cx="1456" cy="-26.8701" rx="86.0347" ry="26.7407"/>
<text text-anchor="middle" x="1456" y="-30.6701" font-family="Times,serif" font-size="14.00">sqlite3WhereBegin</text>
<text text-anchor="middle" x="1456" y="-15.6701" font-family="Times,serif" font-size="14.00">(where.c)</text>
</g>
<!-- F135bb08 -->
<g id="node30" class="node"><title>F135bb08</title>
<ellipse fill="chartreuse" stroke="chartreuse" cx="1400" cy="-834.531" rx="84.2917" ry="26.7407"/>
<text text-anchor="middle" x="1400" y="-838.331" font-family="Times,serif" font-size="14.00">sqlite3NestedParse</text>
<text text-anchor="middle" x="1400" y="-823.331" font-family="Times,serif" font-size="14.00">(build.c)</text>
</g>
<!-- F135bb08&#45;&gt;F135c148 -->
<g id="edge20" class="edge"><title>F135bb08&#45;&gt;F135c148</title>
<path fill="none" stroke="black" d="M1400,-807.369C1400,-772.749 1400,-709.819 1400,-656.051 1400,-656.051 1400,-656.051 1400,-384.831 1400,-336.103 1400,-279.851 1400,-243.965"/>
<polygon fill="black" stroke="black" points="1403.5,-243.513 1400,-233.513 1396.5,-243.513 1403.5,-243.513"/>
</g>
<!-- F13729c8 -->
<g id="node32" class="node"><title>F13729c8</title>
<ellipse fill="chartreuse" stroke="chartreuse" cx="1456" cy="-116.61" rx="60.623" ry="26.7407"/>
<text text-anchor="middle" x="1456" y="-120.41" font-family="Times,serif" font-size="14.00">sqlite3Select</text>
<text text-anchor="middle" x="1456" y="-105.41" font-family="Times,serif" font-size="14.00">(select.c)</text>
</g>
<!-- F135c148&#45;&gt;F13729c8 -->
<g id="edge21" class="edge"><title>F135c148&#45;&gt;F13729c8</title>
<path fill="none" stroke="black" d="M1416.2,-179.972C1421.94,-170.982 1428.48,-160.724 1434.59,-151.16"/>
<polygon fill="black" stroke="black" points="1437.6,-152.941 1440.03,-142.628 1431.7,-149.175 1437.6,-152.941"/>
</g>
<!-- F13729c8&#45;&gt;F1337338 -->
<g id="edge27" class="edge"><title>F13729c8&#45;&gt;F1337338</title>
<path fill="none" stroke="black" d="M1456,-89.2852C1456,-81.3185 1456,-72.4275 1456,-63.9391"/>
<polygon fill="black" stroke="black" points="1459.5,-63.874 1456,-53.874 1452.5,-63.8741 1459.5,-63.874"/>
</g>
<!-- F147e718 -->
<g id="node41" class="node"><title>F147e718</title>
<ellipse fill="darkorange" stroke="darkorange" cx="1621" cy="-655.051" rx="74.4932" ry="26.7407"/>
<text text-anchor="middle" x="1621" y="-658.851" font-family="Times,serif" font-size="14.00">writeJournalHdr</text>
<text text-anchor="middle" x="1621" y="-643.851" font-family="Times,serif" font-size="14.00">(pager.c)</text>
</g>
<!-- F13cf898&#45;&gt;F147e718 -->
<g id="edge33" class="edge"><title>F13cf898&#45;&gt;F147e718</title>
<path fill="none" stroke="black" d="M1621,-717.466C1621,-709.499 1621,-700.608 1621,-692.12"/>
<polygon fill="black" stroke="black" points="1624.5,-692.055 1621,-682.055 1617.5,-692.055 1624.5,-692.055"/>
</g>
<!-- F136cac8 -->
<g id="node34" class="node"><title>F136cac8</title>
<ellipse fill="gray" stroke="gray" cx="267" cy="-1462.71" rx="75.8212" ry="26.7407"/>
<text text-anchor="middle" x="267" y="-1466.51" font-family="Times,serif" font-size="14.00">sqlite3_initialize</text>
<text text-anchor="middle" x="267" y="-1451.51" font-family="Times,serif" font-size="14.00">(mutex.c)</text>
</g>
<!-- F136cac8&#45;&gt;F131d678 -->
<g id="edge23" class="edge"><title>F136cac8&#45;&gt;F131d678</title>
<path fill="none" stroke="black" d="M258.161,-1435.86C255.348,-1427.63 252.186,-1418.38 249.18,-1409.59"/>
<polygon fill="black" stroke="black" points="252.426,-1408.27 245.879,-1399.94 245.803,-1410.54 252.426,-1408.27"/>
</g>
<!-- F1370d38&#45;&gt;F13729c8 -->
<g id="edge24" class="edge"><title>F1370d38&#45;&gt;F13729c8</title>
<path fill="none" stroke="black" d="M1440.35,-991.079C1455.78,-980.827 1472.23,-967.292 1483,-951.141 1512.38,-907.064 1512,-888.505 1512,-835.531 1512,-835.531 1512,-835.531 1512,-295.09 1512,-242.945 1509.84,-228.48 1492,-179.48 1488.49,-169.846 1483.51,-159.996 1478.36,-151.07"/>
<polygon fill="black" stroke="black" points="1481.36,-149.264 1473.21,-142.493 1475.36,-152.868 1481.36,-149.264"/>
</g>
<!-- F13756f8 -->
<g id="node36" class="node"><title>F13756f8</title>
<ellipse fill="chartreuse" stroke="chartreuse" cx="1221" cy="-924.271" rx="77.1494" ry="26.7407"/>
<text text-anchor="middle" x="1221" y="-928.071" font-family="Times,serif" font-size="14.00">sqlite3StartTable</text>
<text text-anchor="middle" x="1221" y="-913.071" font-family="Times,serif" font-size="14.00">(build.c)</text>
</g>
<!-- F1370d38&#45;&gt;F13756f8 -->
<g id="edge25" class="edge"><title>F1370d38&#45;&gt;F13756f8</title>
<path fill="none" stroke="black" d="M1356.67,-991.772C1331.68,-979.523 1300.08,-964.032 1273.66,-951.084"/>
<polygon fill="black" stroke="black" points="1275.07,-947.878 1264.55,-946.619 1271.99,-954.163 1275.07,-947.878"/>
</g>
<!-- F1375bd8 -->
<g id="node37" class="node"><title>F1375bd8</title>
<ellipse fill="chartreuse" stroke="chartreuse" cx="1400" cy="-924.271" rx="74.4932" ry="26.7407"/>
<text text-anchor="middle" x="1400" y="-928.071" font-family="Times,serif" font-size="14.00">sqlite3EndTable</text>
<text text-anchor="middle" x="1400" y="-913.071" font-family="Times,serif" font-size="14.00">(build.c)</text>
</g>
<!-- F1370d38&#45;&gt;F1375bd8 -->
<g id="edge26" class="edge"><title>F1370d38&#45;&gt;F1375bd8</title>
<path fill="none" stroke="black" d="M1400,-986.686C1400,-978.72 1400,-969.829 1400,-961.34"/>
<polygon fill="black" stroke="black" points="1403.5,-961.275 1400,-951.275 1396.5,-961.275 1403.5,-961.275"/>
</g>
<!-- F13968c8 -->
<g id="node38" class="node"><title>F13968c8</title>
<ellipse fill="chartreuse" stroke="chartreuse" cx="1210" cy="-834.531" rx="87.8629" ry="26.7407"/>
<text text-anchor="middle" x="1210" y="-838.331" font-family="Times,serif" font-size="14.00">sqlite3ReadSchema</text>
<text text-anchor="middle" x="1210" y="-823.331" font-family="Times,serif" font-size="14.00">(prepare.c)</text>
</g>
<!-- F13756f8&#45;&gt;F13968c8 -->
<g id="edge28" class="edge"><title>F13756f8&#45;&gt;F13968c8</title>
<path fill="none" stroke="black" d="M1217.76,-897.421C1216.74,-889.282 1215.59,-880.143 1214.5,-871.436"/>
<polygon fill="black" stroke="black" points="1217.97,-870.987 1213.26,-861.5 1211.03,-871.858 1217.97,-870.987"/>
</g>
<!-- F1375bd8&#45;&gt;F135bb08 -->
<g id="edge29" class="edge"><title>F1375bd8&#45;&gt;F135bb08</title>
<path fill="none" stroke="black" d="M1400,-896.946C1400,-888.98 1400,-880.089 1400,-871.6"/>
<polygon fill="black" stroke="black" points="1403.5,-871.535 1400,-861.535 1396.5,-871.535 1403.5,-871.535"/>
</g>
<!-- F13ff588 -->
<g id="node39" class="node"><title>F13ff588</title>
<ellipse fill="chartreuse" stroke="chartreuse" cx="1210" cy="-744.791" rx="53.9813" ry="26.7407"/>
<text text-anchor="middle" x="1210" y="-748.591" font-family="Times,serif" font-size="14.00">sqlite3Init</text>
<text text-anchor="middle" x="1210" y="-733.591" font-family="Times,serif" font-size="14.00">(prepare.c)</text>
</g>
<!-- F13968c8&#45;&gt;F13ff588 -->
<g id="edge30" class="edge"><title>F13968c8&#45;&gt;F13ff588</title>
<path fill="none" stroke="black" d="M1210,-807.206C1210,-799.239 1210,-790.348 1210,-781.86"/>
<polygon fill="black" stroke="black" points="1213.5,-781.795 1210,-771.795 1206.5,-781.795 1213.5,-781.795"/>
</g>
<!-- F13a9f78 -->
<g id="node40" class="node"><title>F13a9f78</title>
<ellipse fill="chartreuse" stroke="chartreuse" cx="1210" cy="-655.051" rx="66.4361" ry="26.7407"/>
<text text-anchor="middle" x="1210" y="-658.851" font-family="Times,serif" font-size="14.00">sqlite3InitOne</text>
<text text-anchor="middle" x="1210" y="-643.851" font-family="Times,serif" font-size="14.00">(prepare.c)</text>
</g>
<!-- F13ff588&#45;&gt;F13a9f78 -->
<g id="edge37" class="edge"><title>F13ff588&#45;&gt;F13a9f78</title>
<path fill="none" stroke="black" d="M1210,-717.466C1210,-709.499 1210,-700.608 1210,-692.12"/>
<polygon fill="black" stroke="black" points="1213.5,-692.055 1210,-682.055 1206.5,-692.055 1213.5,-692.055"/>
</g>
<!-- F13a9f78&#45;&gt;F1330228 -->
<g id="edge31" class="edge"><title>F13a9f78&#45;&gt;F1330228</title>
<path fill="none" stroke="black" d="M1179.52,-630.998C1165.02,-620.031 1147.54,-606.805 1132.16,-595.177"/>
<polygon fill="black" stroke="black" points="1133.96,-592.147 1123.87,-588.906 1129.74,-597.73 1133.96,-592.147"/>
</g>
<!-- F13a9f78&#45;&gt;F1332c18 -->
<g id="edge32" class="edge"><title>F13a9f78&#45;&gt;F1332c18</title>
<path fill="none" stroke="black" d="M1215.82,-628.244C1222.69,-597.749 1234.17,-546.827 1241.9,-512.491"/>
<polygon fill="black" stroke="black" points="1245.39,-512.934 1244.18,-502.409 1238.56,-511.395 1245.39,-512.934"/>
</g>
<!-- F13fe218 -->
<g id="node42" class="node"><title>F13fe218</title>
<ellipse fill="gray" stroke="gray" cx="672" cy="-1283.23" rx="60.623" ry="26.7407"/>
<text text-anchor="middle" x="672" y="-1287.03" font-family="Times,serif" font-size="14.00">sqlite3_open</text>
<text text-anchor="middle" x="672" y="-1272.03" font-family="Times,serif" font-size="14.00">(main.c)</text>
</g>
<!-- F13fe218&#45;&gt;F1320dc8 -->
<g id="edge36" class="edge"><title>F13fe218&#45;&gt;F1320dc8</title>
<path fill="none" stroke="black" d="M672,-1255.91C672,-1247.94 672,-1239.05 672,-1230.56"/>
<polygon fill="black" stroke="black" points="675.5,-1230.5 672,-1220.5 668.5,-1230.5 675.5,-1230.5"/>
</g>
<!-- F14246a8 -->
<g id="node43" class="node"><title>F14246a8</title>
<ellipse fill="gray" stroke="gray" cx="513" cy="-1552.45" rx="61.5366" ry="26.7407"/>
<text text-anchor="middle" x="513" y="-1556.25" font-family="Times,serif" font-size="14.00">sqlite3_close</text>
<text text-anchor="middle" x="513" y="-1541.25" font-family="Times,serif" font-size="14.00">(main.c)</text>
</g>
<!-- F1424ab8 -->
<g id="node44" class="node"><title>F1424ab8</title>
<ellipse fill="gray" stroke="gray" cx="513" cy="-1462.71" rx="58.8803" ry="26.7407"/>
<text text-anchor="middle" x="513" y="-1466.51" font-family="Times,serif" font-size="14.00">sqlite3Close</text>
<text text-anchor="middle" x="513" y="-1451.51" font-family="Times,serif" font-size="14.00">(main.c)</text>
</g>
<!-- F14246a8&#45;&gt;F1424ab8 -->
<g id="edge38" class="edge"><title>F14246a8&#45;&gt;F1424ab8</title>
<path fill="none" stroke="black" d="M513,-1525.13C513,-1517.16 513,-1508.27 513,-1499.78"/>
<polygon fill="black" stroke="black" points="516.5,-1499.72 513,-1489.72 509.5,-1499.72 516.5,-1499.72"/>
</g>
<!-- F14258f8 -->
<g id="node45" class="node"><title>F14258f8</title>
<ellipse fill="gray" stroke="gray" cx="513" cy="-1372.97" rx="149.813" ry="26.7407"/>
<text text-anchor="middle" x="513" y="-1376.77" font-family="Times,serif" font-size="14.00">sqlite3LeaveMutexAndCloseZombi</text>
<text text-anchor="middle" x="513" y="-1361.77" font-family="Times,serif" font-size="14.00">(main.c)</text>
</g>
<!-- F1424ab8&#45;&gt;F14258f8 -->
<g id="edge39" class="edge"><title>F1424ab8&#45;&gt;F14258f8</title>
<path fill="none" stroke="black" d="M513,-1435.39C513,-1427.42 513,-1418.53 513,-1410.04"/>
<polygon fill="black" stroke="black" points="516.5,-1409.98 513,-1399.98 509.5,-1409.98 516.5,-1409.98"/>
</g>
<!-- F14258f8&#45;&gt;F1331e28 -->
<g id="edge40" class="edge"><title>F14258f8&#45;&gt;F1331e28</title>
<path fill="none" stroke="black" d="M466.88,-1347.3C444.981,-1335.58 418.828,-1321.59 396.727,-1309.77"/>
<polygon fill="black" stroke="black" points="398.312,-1306.64 387.844,-1305.01 395.01,-1312.82 398.312,-1306.64"/>
</g>
<!-- F14807b8 -->
<g id="node46" class="node"><title>F14807b8</title>
<ellipse fill="darkgoldenrod" stroke="darkgoldenrod" cx="513" cy="-1283.23" rx="79.8062" ry="26.7407"/>
<text text-anchor="middle" x="513" y="-1287.03" font-family="Times,serif" font-size="14.00">sqlite3BtreeClose</text>
<text text-anchor="middle" x="513" y="-1272.03" font-family="Times,serif" font-size="14.00">(btree.h)</text>
</g>
<!-- F14258f8&#45;&gt;F14807b8 -->
<g id="edge41" class="edge"><title>F14258f8&#45;&gt;F14807b8</title>
<path fill="none" stroke="black" d="M513,-1345.65C513,-1337.68 513,-1328.79 513,-1320.3"/>
<polygon fill="black" stroke="black" points="516.5,-1320.24 513,-1310.24 509.5,-1320.24 516.5,-1320.24"/>
</g>
<!-- F145f4a8 -->
<g id="node47" class="node"><title>F145f4a8</title>
<ellipse fill="gray" stroke="gray" cx="327" cy="-1552.45" rx="75.8212" ry="26.7407"/>
<text text-anchor="middle" x="327" y="-1556.25" font-family="Times,serif" font-size="14.00">sqlite3_initialize</text>
<text text-anchor="middle" x="327" y="-1541.25" font-family="Times,serif" font-size="14.00">(mutex.c)</text>
</g>
<!-- F145f4a8&#45;&gt;F136cac8 -->
<g id="edge44" class="edge"><title>F145f4a8&#45;&gt;F136cac8</title>
<path fill="none" stroke="black" d="M309.646,-1526.07C303.551,-1517.16 296.604,-1507 290.112,-1497.51"/>
<polygon fill="black" stroke="black" points="292.849,-1495.31 284.315,-1489.03 287.071,-1499.26 292.849,-1495.31"/>
</g>
<!-- F14a6288 -->
<g id="node48" class="node"><title>F14a6288</title>
<ellipse fill="bisque" stroke="bisque" cx="789" cy="-1462.71" rx="70.922" ry="26.7407"/>
<text text-anchor="middle" x="789" y="-1466.51" font-family="Times,serif" font-size="14.00">runOneSqlLine</text>
<text text-anchor="middle" x="789" y="-1451.51" font-family="Times,serif" font-size="14.00">(shell.c)</text>
</g>
<!-- F14a66d8 -->
<g id="node49" class="node"><title>F14a66d8</title>
<ellipse fill="bisque" stroke="bisque" cx="789" cy="-1372.97" rx="44.5955" ry="26.7407"/>
<text text-anchor="middle" x="789" y="-1376.77" font-family="Times,serif" font-size="14.00">open_db</text>
<text text-anchor="middle" x="789" y="-1361.77" font-family="Times,serif" font-size="14.00">(shell.c)</text>
</g>
<!-- F14a6288&#45;&gt;F14a66d8 -->
<g id="edge45" class="edge"><title>F14a6288&#45;&gt;F14a66d8</title>
<path fill="none" stroke="black" d="M789,-1435.39C789,-1427.42 789,-1418.53 789,-1410.04"/>
<polygon fill="black" stroke="black" points="792.5,-1409.98 789,-1399.98 785.5,-1409.98 792.5,-1409.98"/>
</g>
<!-- F14a6cc8 -->
<g id="node50" class="node"><title>F14a6cc8</title>
<ellipse fill="bisque" stroke="bisque" cx="1056" cy="-1372.97" rx="52.1524" ry="26.7407"/>
<text text-anchor="middle" x="1056" y="-1376.77" font-family="Times,serif" font-size="14.00">shell_exec</text>
<text text-anchor="middle" x="1056" y="-1361.77" font-family="Times,serif" font-size="14.00">(shell.c)</text>
</g>
<!-- F14a6288&#45;&gt;F14a6cc8 -->
<g id="edge46" class="edge"><title>F14a6288&#45;&gt;F14a6cc8</title>
<path fill="none" stroke="black" d="M841.432,-1444.48C888.079,-1429.15 955.979,-1406.84 1002.84,-1391.44"/>
<polygon fill="black" stroke="black" points="1004.1,-1394.71 1012.51,-1388.26 1001.92,-1388.06 1004.1,-1394.71"/>
</g>
<!-- F14a66d8&#45;&gt;F1328958 -->
<g id="edge47" class="edge"><title>F14a66d8&#45;&gt;F1328958</title>
<path fill="none" stroke="black" d="M806.215,-1348C812.875,-1338.72 820.616,-1327.94 827.817,-1317.91"/>
<polygon fill="black" stroke="black" points="830.714,-1319.88 833.704,-1309.71 825.028,-1315.79 830.714,-1319.88"/>
</g>
<!-- F14a66d8&#45;&gt;F13fe218 -->
<g id="edge48" class="edge"><title>F14a66d8&#45;&gt;F13fe218</title>
<path fill="none" stroke="black" d="M761.864,-1351.62C746.548,-1340.14 727.161,-1325.6 710.318,-1312.97"/>
<polygon fill="black" stroke="black" points="712.383,-1310.14 702.283,-1306.94 708.183,-1315.74 712.383,-1310.14"/>
</g>
<!-- F14a6cc8&#45;&gt;F1328ee8 -->
<g id="edge49" class="edge"><title>F14a6cc8&#45;&gt;F1328ee8</title>
<path fill="none" stroke="black" d="M1056,-1345.65C1056,-1337.68 1056,-1328.79 1056,-1320.3"/>
<polygon fill="black" stroke="black" points="1059.5,-1320.24 1056,-1310.24 1052.5,-1320.24 1059.5,-1320.24"/>
</g>
<!-- F14adeb8 -->
<g id="node51" class="node"><title>F14adeb8</title>
<ellipse fill="bisque" stroke="bisque" cx="1248" cy="-1283.23" rx="89.191" ry="26.7407"/>
<text text-anchor="middle" x="1248" y="-1287.03" font-family="Times,serif" font-size="14.00">exec_prepared_stmt</text>
<text text-anchor="middle" x="1248" y="-1272.03" font-family="Times,serif" font-size="14.00">(shell.c)</text>
</g>
<!-- F14a6cc8&#45;&gt;F14adeb8 -->
<g id="edge50" class="edge"><title>F14a6cc8&#45;&gt;F14adeb8</title>
<path fill="none" stroke="black" d="M1094.39,-1354.43C1121.96,-1341.83 1159.59,-1324.63 1190.71,-1310.41"/>
<polygon fill="black" stroke="black" points="1192.5,-1313.44 1200.14,-1306.1 1189.59,-1307.08 1192.5,-1313.44"/>
</g>
<!-- F14adeb8&#45;&gt;F1331348 -->
<g id="edge56" class="edge"><title>F14adeb8&#45;&gt;F1331348</title>
<path fill="none" stroke="black" d="M1240.34,-1256.38C1237.88,-1248.08 1235.11,-1238.74 1232.49,-1229.88"/>
<polygon fill="black" stroke="black" points="1235.8,-1228.75 1229.61,-1220.16 1229.09,-1230.74 1235.8,-1228.75"/>
</g>
<!-- F14a9168 -->
<g id="node52" class="node"><title>F14a9168</title>
<ellipse fill="lightgrey" stroke="black" cx="585" cy="-1642.19" rx="28.6953" ry="18"/>
<text text-anchor="middle" x="585" y="-1638.49" font-family="Times,serif" font-size="14.00">main</text>
</g>
<!-- F14a9168&#45;&gt;F14246a8 -->
<g id="edge51" class="edge"><title>F14a9168&#45;&gt;F14246a8</title>
<path fill="none" stroke="black" d="M572.459,-1625.91C563.432,-1614.91 550.921,-1599.66 539.703,-1585.99"/>
<polygon fill="black" stroke="black" points="542.333,-1583.68 533.284,-1578.17 536.922,-1588.12 542.333,-1583.68"/>
</g>
<!-- F14a9168&#45;&gt;F145f4a8 -->
<g id="edge52" class="edge"><title>F14a9168&#45;&gt;F145f4a8</title>
<path fill="none" stroke="black" d="M572.436,-1625.78C566.31,-1619.19 558.446,-1611.97 550,-1607.32 543.199,-1603.58 461.97,-1584.42 399.492,-1570"/>
<polygon fill="black" stroke="black" points="400.17,-1566.57 389.64,-1567.73 398.599,-1573.39 400.17,-1566.57"/>
</g>
<!-- F14aa918 -->
<g id="node53" class="node"><title>F14aa918</title>
<ellipse fill="bisque" stroke="bisque" cx="658" cy="-1552.45" rx="65.1077" ry="26.7407"/>
<text text-anchor="middle" x="658" y="-1556.25" font-family="Times,serif" font-size="14.00">process_input</text>
<text text-anchor="middle" x="658" y="-1541.25" font-family="Times,serif" font-size="14.00">(shell.c)</text>
</g>
<!-- F14a9168&#45;&gt;F14aa918 -->
<g id="edge53" class="edge"><title>F14a9168&#45;&gt;F14aa918</title>
<path fill="none" stroke="black" d="M597.716,-1625.91C606.867,-1614.91 619.552,-1599.66 630.926,-1585.99"/>
<polygon fill="black" stroke="black" points="633.729,-1588.1 637.435,-1578.17 628.348,-1583.62 633.729,-1588.1"/>
</g>
<!-- F14abcd8 -->
<g id="node54" class="node"><title>F14abcd8</title>
<ellipse fill="bisque" stroke="bisque" cx="810" cy="-1552.45" rx="69.0935" ry="26.7407"/>
<text text-anchor="middle" x="810" y="-1556.25" font-family="Times,serif" font-size="14.00">find_home_dir</text>
<text text-anchor="middle" x="810" y="-1541.25" font-family="Times,serif" font-size="14.00">(shell.c)</text>
</g>
<!-- F14a9168&#45;&gt;F14abcd8 -->
<g id="edge54" class="edge"><title>F14a9168&#45;&gt;F14abcd8</title>
<path fill="none" stroke="black" d="M608.654,-1631.97C642.643,-1618.71 706.338,-1593.88 753.016,-1575.67"/>
<polygon fill="black" stroke="black" points="754.361,-1578.91 762.406,-1572.01 751.817,-1572.38 754.361,-1578.91"/>
</g>
<!-- F14aa918&#45;&gt;F14a6288 -->
<g id="edge55" class="edge"><title>F14aa918&#45;&gt;F14a6288</title>
<path fill="none" stroke="black" d="M691.396,-1529.08C708.203,-1517.83 728.757,-1504.06 746.661,-1492.07"/>
<polygon fill="black" stroke="black" points="748.849,-1494.82 755.21,-1486.34 744.953,-1489 748.849,-1494.82"/>
</g>
</g>
</svg>
